G04 #@! TF.GenerationSoftware,KiCad,Pcbnew,(5.1.5)-3*
G04 #@! TF.CreationDate,2020-04-25T12:46:17+05:30*
G04 #@! TF.ProjectId,bread power supply schematic,62726561-6420-4706-9f77-657220737570,rev?*
G04 #@! TF.SameCoordinates,Original*
G04 #@! TF.FileFunction,Legend,Bot*
G04 #@! TF.FilePolarity,Positive*
%FSLAX46Y46*%
G04 Gerber Fmt 4.6, Leading zero omitted, Abs format (unit mm)*
G04 Created by KiCad (PCBNEW (5.1.5)-3) date 2020-04-25 12:46:17*
%MOMM*%
%LPD*%
G04 APERTURE LIST*
%ADD10C,0.150000*%
%ADD11C,0.120000*%
%ADD12C,0.100000*%
G04 APERTURE END LIST*
D10*
X128389428Y-176474380D02*
X127818000Y-176474380D01*
X128103714Y-176474380D02*
X128103714Y-175474380D01*
X128008476Y-175617238D01*
X127913238Y-175712476D01*
X127818000Y-175760095D01*
X128818000Y-176379142D02*
X128865619Y-176426761D01*
X128818000Y-176474380D01*
X128770380Y-176426761D01*
X128818000Y-176379142D01*
X128818000Y-176474380D01*
X129818000Y-176474380D02*
X129246571Y-176474380D01*
X129532285Y-176474380D02*
X129532285Y-175474380D01*
X129437047Y-175617238D01*
X129341809Y-175712476D01*
X129246571Y-175760095D01*
X130389428Y-175902952D02*
X130294190Y-175855333D01*
X130246571Y-175807714D01*
X130198952Y-175712476D01*
X130198952Y-175664857D01*
X130246571Y-175569619D01*
X130294190Y-175522000D01*
X130389428Y-175474380D01*
X130579904Y-175474380D01*
X130675142Y-175522000D01*
X130722761Y-175569619D01*
X130770380Y-175664857D01*
X130770380Y-175712476D01*
X130722761Y-175807714D01*
X130675142Y-175855333D01*
X130579904Y-175902952D01*
X130389428Y-175902952D01*
X130294190Y-175950571D01*
X130246571Y-175998190D01*
X130198952Y-176093428D01*
X130198952Y-176283904D01*
X130246571Y-176379142D01*
X130294190Y-176426761D01*
X130389428Y-176474380D01*
X130579904Y-176474380D01*
X130675142Y-176426761D01*
X130722761Y-176379142D01*
X130770380Y-176283904D01*
X130770380Y-176093428D01*
X130722761Y-175998190D01*
X130675142Y-175950571D01*
X130579904Y-175902952D01*
X131389428Y-175474380D02*
X131484666Y-175474380D01*
X131579904Y-175522000D01*
X131627523Y-175569619D01*
X131675142Y-175664857D01*
X131722761Y-175855333D01*
X131722761Y-176093428D01*
X131675142Y-176283904D01*
X131627523Y-176379142D01*
X131579904Y-176426761D01*
X131484666Y-176474380D01*
X131389428Y-176474380D01*
X131294190Y-176426761D01*
X131246571Y-176379142D01*
X131198952Y-176283904D01*
X131151333Y-176093428D01*
X131151333Y-175855333D01*
X131198952Y-175664857D01*
X131246571Y-175569619D01*
X131294190Y-175522000D01*
X131389428Y-175474380D01*
X132341809Y-175474380D02*
X132437047Y-175474380D01*
X132532285Y-175522000D01*
X132579904Y-175569619D01*
X132627523Y-175664857D01*
X132675142Y-175855333D01*
X132675142Y-176093428D01*
X132627523Y-176283904D01*
X132579904Y-176379142D01*
X132532285Y-176426761D01*
X132437047Y-176474380D01*
X132341809Y-176474380D01*
X132246571Y-176426761D01*
X132198952Y-176379142D01*
X132151333Y-176283904D01*
X132103714Y-176093428D01*
X132103714Y-175855333D01*
X132151333Y-175664857D01*
X132198952Y-175569619D01*
X132246571Y-175522000D01*
X132341809Y-175474380D01*
X133865619Y-176474380D02*
X133865619Y-175807714D01*
X133865619Y-175474380D02*
X133818000Y-175522000D01*
X133865619Y-175569619D01*
X133913238Y-175522000D01*
X133865619Y-175474380D01*
X133865619Y-175569619D01*
X134341809Y-175807714D02*
X134341809Y-176474380D01*
X134341809Y-175902952D02*
X134389428Y-175855333D01*
X134484666Y-175807714D01*
X134627523Y-175807714D01*
X134722761Y-175855333D01*
X134770380Y-175950571D01*
X134770380Y-176474380D01*
D11*
X116332000Y-174752000D02*
X146304000Y-174752000D01*
X116332000Y-171704000D02*
X116332000Y-175338421D01*
X146304000Y-171704000D02*
X146304000Y-175338421D01*
X146304000Y-174752000D02*
X145177496Y-175338421D01*
X146304000Y-174752000D02*
X145177496Y-174165579D01*
X116332000Y-174752000D02*
X117458504Y-175338421D01*
X116332000Y-174752000D02*
X117458504Y-174165579D01*
D10*
X148645619Y-142613428D02*
X148645619Y-142042000D01*
X148645619Y-142327714D02*
X149645619Y-142327714D01*
X149502761Y-142232476D01*
X149407523Y-142137238D01*
X149359904Y-142042000D01*
X148740857Y-143042000D02*
X148693238Y-143089619D01*
X148645619Y-143042000D01*
X148693238Y-142994380D01*
X148740857Y-143042000D01*
X148645619Y-143042000D01*
X149645619Y-143994380D02*
X149645619Y-143518190D01*
X149169428Y-143470571D01*
X149217047Y-143518190D01*
X149264666Y-143613428D01*
X149264666Y-143851523D01*
X149217047Y-143946761D01*
X149169428Y-143994380D01*
X149074190Y-144042000D01*
X148836095Y-144042000D01*
X148740857Y-143994380D01*
X148693238Y-143946761D01*
X148645619Y-143851523D01*
X148645619Y-143613428D01*
X148693238Y-143518190D01*
X148740857Y-143470571D01*
X149645619Y-144661047D02*
X149645619Y-144756285D01*
X149598000Y-144851523D01*
X149550380Y-144899142D01*
X149455142Y-144946761D01*
X149264666Y-144994380D01*
X149026571Y-144994380D01*
X148836095Y-144946761D01*
X148740857Y-144899142D01*
X148693238Y-144851523D01*
X148645619Y-144756285D01*
X148645619Y-144661047D01*
X148693238Y-144565809D01*
X148740857Y-144518190D01*
X148836095Y-144470571D01*
X149026571Y-144422952D01*
X149264666Y-144422952D01*
X149455142Y-144470571D01*
X149550380Y-144518190D01*
X149598000Y-144565809D01*
X149645619Y-144661047D01*
X149645619Y-145613428D02*
X149645619Y-145708666D01*
X149598000Y-145803904D01*
X149550380Y-145851523D01*
X149455142Y-145899142D01*
X149264666Y-145946761D01*
X149026571Y-145946761D01*
X148836095Y-145899142D01*
X148740857Y-145851523D01*
X148693238Y-145803904D01*
X148645619Y-145708666D01*
X148645619Y-145613428D01*
X148693238Y-145518190D01*
X148740857Y-145470571D01*
X148836095Y-145422952D01*
X149026571Y-145375333D01*
X149264666Y-145375333D01*
X149455142Y-145422952D01*
X149550380Y-145470571D01*
X149598000Y-145518190D01*
X149645619Y-145613428D01*
X149645619Y-146565809D02*
X149645619Y-146661047D01*
X149598000Y-146756285D01*
X149550380Y-146803904D01*
X149455142Y-146851523D01*
X149264666Y-146899142D01*
X149026571Y-146899142D01*
X148836095Y-146851523D01*
X148740857Y-146803904D01*
X148693238Y-146756285D01*
X148645619Y-146661047D01*
X148645619Y-146565809D01*
X148693238Y-146470571D01*
X148740857Y-146422952D01*
X148836095Y-146375333D01*
X149026571Y-146327714D01*
X149264666Y-146327714D01*
X149455142Y-146375333D01*
X149550380Y-146422952D01*
X149598000Y-146470571D01*
X149645619Y-146565809D01*
X148645619Y-148089619D02*
X149312285Y-148089619D01*
X149645619Y-148089619D02*
X149598000Y-148042000D01*
X149550380Y-148089619D01*
X149598000Y-148137238D01*
X149645619Y-148089619D01*
X149550380Y-148089619D01*
X149312285Y-148565809D02*
X148645619Y-148565809D01*
X149217047Y-148565809D02*
X149264666Y-148613428D01*
X149312285Y-148708666D01*
X149312285Y-148851523D01*
X149264666Y-148946761D01*
X149169428Y-148994380D01*
X148645619Y-148994380D01*
D11*
X147828000Y-126492000D02*
X147828000Y-164592000D01*
X146304000Y-126492000D02*
X148414421Y-126492000D01*
X146304000Y-164592000D02*
X148414421Y-164592000D01*
X147828000Y-164592000D02*
X147241579Y-163465496D01*
X147828000Y-164592000D02*
X148414421Y-163465496D01*
X147828000Y-126492000D02*
X147241579Y-127618504D01*
X147828000Y-126492000D02*
X148414421Y-127618504D01*
D10*
X153106380Y-141788000D02*
X153154000Y-141835619D01*
X153201619Y-141930857D01*
X153201619Y-142168952D01*
X153154000Y-142264190D01*
X153106380Y-142311809D01*
X153011142Y-142359428D01*
X152915904Y-142359428D01*
X152773047Y-142311809D01*
X152201619Y-141740380D01*
X152201619Y-142359428D01*
X152296857Y-142788000D02*
X152249238Y-142835619D01*
X152201619Y-142788000D01*
X152249238Y-142740380D01*
X152296857Y-142788000D01*
X152201619Y-142788000D01*
X153201619Y-143454666D02*
X153201619Y-143549904D01*
X153154000Y-143645142D01*
X153106380Y-143692761D01*
X153011142Y-143740380D01*
X152820666Y-143788000D01*
X152582571Y-143788000D01*
X152392095Y-143740380D01*
X152296857Y-143692761D01*
X152249238Y-143645142D01*
X152201619Y-143549904D01*
X152201619Y-143454666D01*
X152249238Y-143359428D01*
X152296857Y-143311809D01*
X152392095Y-143264190D01*
X152582571Y-143216571D01*
X152820666Y-143216571D01*
X153011142Y-143264190D01*
X153106380Y-143311809D01*
X153154000Y-143359428D01*
X153201619Y-143454666D01*
X152773047Y-144359428D02*
X152820666Y-144264190D01*
X152868285Y-144216571D01*
X152963523Y-144168952D01*
X153011142Y-144168952D01*
X153106380Y-144216571D01*
X153154000Y-144264190D01*
X153201619Y-144359428D01*
X153201619Y-144549904D01*
X153154000Y-144645142D01*
X153106380Y-144692761D01*
X153011142Y-144740380D01*
X152963523Y-144740380D01*
X152868285Y-144692761D01*
X152820666Y-144645142D01*
X152773047Y-144549904D01*
X152773047Y-144359428D01*
X152725428Y-144264190D01*
X152677809Y-144216571D01*
X152582571Y-144168952D01*
X152392095Y-144168952D01*
X152296857Y-144216571D01*
X152249238Y-144264190D01*
X152201619Y-144359428D01*
X152201619Y-144549904D01*
X152249238Y-144645142D01*
X152296857Y-144692761D01*
X152392095Y-144740380D01*
X152582571Y-144740380D01*
X152677809Y-144692761D01*
X152725428Y-144645142D01*
X152773047Y-144549904D01*
X153201619Y-145359428D02*
X153201619Y-145454666D01*
X153154000Y-145549904D01*
X153106380Y-145597523D01*
X153011142Y-145645142D01*
X152820666Y-145692761D01*
X152582571Y-145692761D01*
X152392095Y-145645142D01*
X152296857Y-145597523D01*
X152249238Y-145549904D01*
X152201619Y-145454666D01*
X152201619Y-145359428D01*
X152249238Y-145264190D01*
X152296857Y-145216571D01*
X152392095Y-145168952D01*
X152582571Y-145121333D01*
X152820666Y-145121333D01*
X153011142Y-145168952D01*
X153106380Y-145216571D01*
X153154000Y-145264190D01*
X153201619Y-145359428D01*
X153201619Y-146311809D02*
X153201619Y-146407047D01*
X153154000Y-146502285D01*
X153106380Y-146549904D01*
X153011142Y-146597523D01*
X152820666Y-146645142D01*
X152582571Y-146645142D01*
X152392095Y-146597523D01*
X152296857Y-146549904D01*
X152249238Y-146502285D01*
X152201619Y-146407047D01*
X152201619Y-146311809D01*
X152249238Y-146216571D01*
X152296857Y-146168952D01*
X152392095Y-146121333D01*
X152582571Y-146073714D01*
X152820666Y-146073714D01*
X153011142Y-146121333D01*
X153106380Y-146168952D01*
X153154000Y-146216571D01*
X153201619Y-146311809D01*
X152201619Y-147835619D02*
X152868285Y-147835619D01*
X153201619Y-147835619D02*
X153154000Y-147788000D01*
X153106380Y-147835619D01*
X153154000Y-147883238D01*
X153201619Y-147835619D01*
X153106380Y-147835619D01*
X152868285Y-148311809D02*
X152201619Y-148311809D01*
X152773047Y-148311809D02*
X152820666Y-148359428D01*
X152868285Y-148454666D01*
X152868285Y-148597523D01*
X152820666Y-148692761D01*
X152725428Y-148740380D01*
X152201619Y-148740380D01*
D11*
X151384000Y-118872000D02*
X151384000Y-171704000D01*
X146304000Y-118872000D02*
X151970421Y-118872000D01*
X146304000Y-171704000D02*
X151970421Y-171704000D01*
X151384000Y-171704000D02*
X150797579Y-170577496D01*
X151384000Y-171704000D02*
X151970421Y-170577496D01*
X151384000Y-118872000D02*
X150797579Y-119998504D01*
X151384000Y-118872000D02*
X151970421Y-119998504D01*
D10*
X158789619Y-119420095D02*
X158789619Y-119515333D01*
X158742000Y-119610571D01*
X158694380Y-119658190D01*
X158599142Y-119705809D01*
X158408666Y-119753428D01*
X158170571Y-119753428D01*
X157980095Y-119705809D01*
X157884857Y-119658190D01*
X157837238Y-119610571D01*
X157789619Y-119515333D01*
X157789619Y-119420095D01*
X157837238Y-119324857D01*
X157884857Y-119277238D01*
X157980095Y-119229619D01*
X158170571Y-119182000D01*
X158408666Y-119182000D01*
X158599142Y-119229619D01*
X158694380Y-119277238D01*
X158742000Y-119324857D01*
X158789619Y-119420095D01*
X157884857Y-120182000D02*
X157837238Y-120229619D01*
X157789619Y-120182000D01*
X157837238Y-120134380D01*
X157884857Y-120182000D01*
X157789619Y-120182000D01*
X158789619Y-120562952D02*
X158789619Y-121182000D01*
X158408666Y-120848666D01*
X158408666Y-120991523D01*
X158361047Y-121086761D01*
X158313428Y-121134380D01*
X158218190Y-121182000D01*
X157980095Y-121182000D01*
X157884857Y-121134380D01*
X157837238Y-121086761D01*
X157789619Y-120991523D01*
X157789619Y-120705809D01*
X157837238Y-120610571D01*
X157884857Y-120562952D01*
X158789619Y-121801047D02*
X158789619Y-121896285D01*
X158742000Y-121991523D01*
X158694380Y-122039142D01*
X158599142Y-122086761D01*
X158408666Y-122134380D01*
X158170571Y-122134380D01*
X157980095Y-122086761D01*
X157884857Y-122039142D01*
X157837238Y-121991523D01*
X157789619Y-121896285D01*
X157789619Y-121801047D01*
X157837238Y-121705809D01*
X157884857Y-121658190D01*
X157980095Y-121610571D01*
X158170571Y-121562952D01*
X158408666Y-121562952D01*
X158599142Y-121610571D01*
X158694380Y-121658190D01*
X158742000Y-121705809D01*
X158789619Y-121801047D01*
X158789619Y-122753428D02*
X158789619Y-122848666D01*
X158742000Y-122943904D01*
X158694380Y-122991523D01*
X158599142Y-123039142D01*
X158408666Y-123086761D01*
X158170571Y-123086761D01*
X157980095Y-123039142D01*
X157884857Y-122991523D01*
X157837238Y-122943904D01*
X157789619Y-122848666D01*
X157789619Y-122753428D01*
X157837238Y-122658190D01*
X157884857Y-122610571D01*
X157980095Y-122562952D01*
X158170571Y-122515333D01*
X158408666Y-122515333D01*
X158599142Y-122562952D01*
X158694380Y-122610571D01*
X158742000Y-122658190D01*
X158789619Y-122753428D01*
X158789619Y-123705809D02*
X158789619Y-123801047D01*
X158742000Y-123896285D01*
X158694380Y-123943904D01*
X158599142Y-123991523D01*
X158408666Y-124039142D01*
X158170571Y-124039142D01*
X157980095Y-123991523D01*
X157884857Y-123943904D01*
X157837238Y-123896285D01*
X157789619Y-123801047D01*
X157789619Y-123705809D01*
X157837238Y-123610571D01*
X157884857Y-123562952D01*
X157980095Y-123515333D01*
X158170571Y-123467714D01*
X158408666Y-123467714D01*
X158599142Y-123515333D01*
X158694380Y-123562952D01*
X158742000Y-123610571D01*
X158789619Y-123705809D01*
X157789619Y-125229619D02*
X158456285Y-125229619D01*
X158789619Y-125229619D02*
X158742000Y-125182000D01*
X158694380Y-125229619D01*
X158742000Y-125277238D01*
X158789619Y-125229619D01*
X158694380Y-125229619D01*
X158456285Y-125705809D02*
X157789619Y-125705809D01*
X158361047Y-125705809D02*
X158408666Y-125753428D01*
X158456285Y-125848666D01*
X158456285Y-125991523D01*
X158408666Y-126086761D01*
X158313428Y-126134380D01*
X157789619Y-126134380D01*
D11*
X156972000Y-118872000D02*
X156972000Y-126492000D01*
X146304000Y-118872000D02*
X157558421Y-118872000D01*
X146304000Y-126492000D02*
X157558421Y-126492000D01*
X156972000Y-126492000D02*
X156385579Y-125365496D01*
X156972000Y-126492000D02*
X157558421Y-125365496D01*
X156972000Y-118872000D02*
X156385579Y-119998504D01*
X156972000Y-118872000D02*
X157558421Y-119998504D01*
D12*
X137995047Y-160998095D02*
X137976000Y-161017142D01*
X137956952Y-161055238D01*
X137956952Y-161150476D01*
X137976000Y-161188571D01*
X137995047Y-161207619D01*
X138033142Y-161226666D01*
X138071238Y-161226666D01*
X138128380Y-161207619D01*
X138356952Y-160979047D01*
X138356952Y-161226666D01*
X138090285Y-161569523D02*
X138356952Y-161569523D01*
X137937904Y-161474285D02*
X138223619Y-161379047D01*
X138223619Y-161626666D01*
X138204571Y-161779047D02*
X138204571Y-162083809D01*
X137956952Y-162350476D02*
X137956952Y-162388571D01*
X137976000Y-162426666D01*
X137995047Y-162445714D01*
X138033142Y-162464761D01*
X138109333Y-162483809D01*
X138204571Y-162483809D01*
X138280761Y-162464761D01*
X138318857Y-162445714D01*
X138337904Y-162426666D01*
X138356952Y-162388571D01*
X138356952Y-162350476D01*
X138337904Y-162312380D01*
X138318857Y-162293333D01*
X138280761Y-162274285D01*
X138204571Y-162255238D01*
X138109333Y-162255238D01*
X138033142Y-162274285D01*
X137995047Y-162293333D01*
X137976000Y-162312380D01*
X137956952Y-162350476D01*
X138090285Y-162826666D02*
X138356952Y-162826666D01*
X137937904Y-162731428D02*
X138223619Y-162636190D01*
X138223619Y-162883809D01*
X138204571Y-163036190D02*
X138204571Y-163340952D01*
X137995047Y-163512380D02*
X137976000Y-163531428D01*
X137956952Y-163569523D01*
X137956952Y-163664761D01*
X137976000Y-163702857D01*
X137995047Y-163721904D01*
X138033142Y-163740952D01*
X138071238Y-163740952D01*
X138128380Y-163721904D01*
X138356952Y-163493333D01*
X138356952Y-163740952D01*
X137956952Y-163988571D02*
X137956952Y-164026666D01*
X137976000Y-164064761D01*
X137995047Y-164083809D01*
X138033142Y-164102857D01*
X138109333Y-164121904D01*
X138204571Y-164121904D01*
X138280761Y-164102857D01*
X138318857Y-164083809D01*
X138337904Y-164064761D01*
X138356952Y-164026666D01*
X138356952Y-163988571D01*
X138337904Y-163950476D01*
X138318857Y-163931428D01*
X138280761Y-163912380D01*
X138204571Y-163893333D01*
X138109333Y-163893333D01*
X138033142Y-163912380D01*
X137995047Y-163931428D01*
X137976000Y-163950476D01*
X137956952Y-163988571D01*
D10*
X135771380Y-158226666D02*
X134771380Y-158226666D01*
X134771380Y-158464761D01*
X134819000Y-158607619D01*
X134914238Y-158702857D01*
X135009476Y-158750476D01*
X135199952Y-158798095D01*
X135342809Y-158798095D01*
X135533285Y-158750476D01*
X135628523Y-158702857D01*
X135723761Y-158607619D01*
X135771380Y-158464761D01*
X135771380Y-158226666D01*
X135723761Y-159607619D02*
X135771380Y-159512380D01*
X135771380Y-159321904D01*
X135723761Y-159226666D01*
X135628523Y-159179047D01*
X135247571Y-159179047D01*
X135152333Y-159226666D01*
X135104714Y-159321904D01*
X135104714Y-159512380D01*
X135152333Y-159607619D01*
X135247571Y-159655238D01*
X135342809Y-159655238D01*
X135438047Y-159179047D01*
X135723761Y-160036190D02*
X135771380Y-160131428D01*
X135771380Y-160321904D01*
X135723761Y-160417142D01*
X135628523Y-160464761D01*
X135580904Y-160464761D01*
X135485666Y-160417142D01*
X135438047Y-160321904D01*
X135438047Y-160179047D01*
X135390428Y-160083809D01*
X135295190Y-160036190D01*
X135247571Y-160036190D01*
X135152333Y-160083809D01*
X135104714Y-160179047D01*
X135104714Y-160321904D01*
X135152333Y-160417142D01*
X135771380Y-160893333D02*
X135104714Y-160893333D01*
X134771380Y-160893333D02*
X134819000Y-160845714D01*
X134866619Y-160893333D01*
X134819000Y-160940952D01*
X134771380Y-160893333D01*
X134866619Y-160893333D01*
X135104714Y-161798095D02*
X135914238Y-161798095D01*
X136009476Y-161750476D01*
X136057095Y-161702857D01*
X136104714Y-161607619D01*
X136104714Y-161464761D01*
X136057095Y-161369523D01*
X135723761Y-161798095D02*
X135771380Y-161702857D01*
X135771380Y-161512380D01*
X135723761Y-161417142D01*
X135676142Y-161369523D01*
X135580904Y-161321904D01*
X135295190Y-161321904D01*
X135199952Y-161369523D01*
X135152333Y-161417142D01*
X135104714Y-161512380D01*
X135104714Y-161702857D01*
X135152333Y-161798095D01*
X135104714Y-162274285D02*
X135771380Y-162274285D01*
X135199952Y-162274285D02*
X135152333Y-162321904D01*
X135104714Y-162417142D01*
X135104714Y-162560000D01*
X135152333Y-162655238D01*
X135247571Y-162702857D01*
X135771380Y-162702857D01*
X135723761Y-163560000D02*
X135771380Y-163464761D01*
X135771380Y-163274285D01*
X135723761Y-163179047D01*
X135628523Y-163131428D01*
X135247571Y-163131428D01*
X135152333Y-163179047D01*
X135104714Y-163274285D01*
X135104714Y-163464761D01*
X135152333Y-163560000D01*
X135247571Y-163607619D01*
X135342809Y-163607619D01*
X135438047Y-163131428D01*
X135771380Y-164464761D02*
X134771380Y-164464761D01*
X135723761Y-164464761D02*
X135771380Y-164369523D01*
X135771380Y-164179047D01*
X135723761Y-164083809D01*
X135676142Y-164036190D01*
X135580904Y-163988571D01*
X135295190Y-163988571D01*
X135199952Y-164036190D01*
X135152333Y-164083809D01*
X135104714Y-164179047D01*
X135104714Y-164369523D01*
X135152333Y-164464761D01*
X135771380Y-165702857D02*
X134771380Y-165702857D01*
X135152333Y-165702857D02*
X135104714Y-165798095D01*
X135104714Y-165988571D01*
X135152333Y-166083809D01*
X135199952Y-166131428D01*
X135295190Y-166179047D01*
X135580904Y-166179047D01*
X135676142Y-166131428D01*
X135723761Y-166083809D01*
X135771380Y-165988571D01*
X135771380Y-165798095D01*
X135723761Y-165702857D01*
X135104714Y-166512380D02*
X135771380Y-166750476D01*
X135104714Y-166988571D02*
X135771380Y-166750476D01*
X136009476Y-166655238D01*
X136057095Y-166607619D01*
X136104714Y-166512380D01*
X137421380Y-160583809D02*
X136421380Y-160583809D01*
X136421380Y-160821904D01*
X136469000Y-160964761D01*
X136564238Y-161060000D01*
X136659476Y-161107619D01*
X136849952Y-161155238D01*
X136992809Y-161155238D01*
X137183285Y-161107619D01*
X137278523Y-161060000D01*
X137373761Y-160964761D01*
X137421380Y-160821904D01*
X137421380Y-160583809D01*
X137421380Y-161583809D02*
X136754714Y-161583809D01*
X136945190Y-161583809D02*
X136849952Y-161631428D01*
X136802333Y-161679047D01*
X136754714Y-161774285D01*
X136754714Y-161869523D01*
X137421380Y-162631428D02*
X136897571Y-162631428D01*
X136802333Y-162583809D01*
X136754714Y-162488571D01*
X136754714Y-162298095D01*
X136802333Y-162202857D01*
X137373761Y-162631428D02*
X137421380Y-162536190D01*
X137421380Y-162298095D01*
X137373761Y-162202857D01*
X137278523Y-162155238D01*
X137183285Y-162155238D01*
X137088047Y-162202857D01*
X137040428Y-162298095D01*
X137040428Y-162536190D01*
X136992809Y-162631428D01*
X137421380Y-163107619D02*
X136421380Y-163107619D01*
X137421380Y-163679047D02*
X136849952Y-163250476D01*
X136421380Y-163679047D02*
X136992809Y-163107619D01*
X137421380Y-164250476D02*
X137373761Y-164155238D01*
X137326142Y-164107619D01*
X137230904Y-164060000D01*
X136945190Y-164060000D01*
X136849952Y-164107619D01*
X136802333Y-164155238D01*
X136754714Y-164250476D01*
X136754714Y-164393333D01*
X136802333Y-164488571D01*
X136849952Y-164536190D01*
X136945190Y-164583809D01*
X137230904Y-164583809D01*
X137326142Y-164536190D01*
X137373761Y-164488571D01*
X137421380Y-164393333D01*
X137421380Y-164250476D01*
M02*
