M48
; DRILL file {KiCad (5.1.5)-3} date 04/25/20 12:46:39
; FORMAT={-:-/ absolute / inch / decimal}
; #@! TF.CreationDate,2020-04-25T12:46:39+05:30
; #@! TF.GenerationSoftware,Kicad,Pcbnew,(5.1.5)-3
; #@! TF.FileFunction,Plated,1,2,PTH
FMAT,2
INCH
T1C0.0315
T2C0.0354
T3C0.0394
T4C0.0433
T5C0.0630
%
G90
G05
T1
X5.06Y-5.1
X5.36Y-5.1
X5.16Y-6.28
X5.16Y-6.58
X5.14Y-4.84
X5.2384Y-4.84
T2
X5.18Y-6.08
X5.28Y-6.08
X5.32Y-5.34
X5.42Y-5.34
T3
X5.58Y-4.78
X5.58Y-4.88
X5.68Y-4.78
X5.68Y-4.88
X4.72Y-4.92
X4.9169Y-4.92
X5.56Y-6.58
X5.56Y-6.68
X5.66Y-6.58
X5.66Y-6.68
T4
X5.28Y-5.6
X5.28Y-5.7
X5.28Y-5.8
X4.66Y-5.46
X5.06Y-5.46
X4.66Y-5.84
X5.06Y-5.84
X4.66Y-5.26
X5.06Y-5.26
X4.66Y-5.66
X5.06Y-5.66
T5
X4.8Y-6.16
X4.8Y-6.3962
X4.985Y-6.2781
T0
M30
