G04 #@! TF.GenerationSoftware,KiCad,Pcbnew,(5.1.5)-3*
G04 #@! TF.CreationDate,2020-04-25T12:46:17+05:30*
G04 #@! TF.ProjectId,bread power supply schematic,62726561-6420-4706-9f77-657220737570,rev?*
G04 #@! TF.SameCoordinates,Original*
G04 #@! TF.FileFunction,Soldermask,Bot*
G04 #@! TF.FilePolarity,Negative*
%FSLAX46Y46*%
G04 Gerber Fmt 4.6, Leading zero omitted, Abs format (unit mm)*
G04 Created by KiCad (PCBNEW (5.1.5)-3) date 2020-04-25 12:46:17*
%MOMM*%
%LPD*%
G04 APERTURE LIST*
%ADD10C,0.100000*%
G04 APERTURE END LIST*
D10*
G36*
X143877512Y-168775927D02*
G01*
X144026812Y-168805624D01*
X144190784Y-168873544D01*
X144338354Y-168972147D01*
X144463853Y-169097646D01*
X144562456Y-169245216D01*
X144630376Y-169409188D01*
X144665000Y-169583259D01*
X144665000Y-169760741D01*
X144630376Y-169934812D01*
X144562456Y-170098784D01*
X144463853Y-170246354D01*
X144338354Y-170371853D01*
X144190784Y-170470456D01*
X144026812Y-170538376D01*
X143877512Y-170568073D01*
X143852742Y-170573000D01*
X143675258Y-170573000D01*
X143650488Y-170568073D01*
X143501188Y-170538376D01*
X143337216Y-170470456D01*
X143189646Y-170371853D01*
X143064147Y-170246354D01*
X142965544Y-170098784D01*
X142897624Y-169934812D01*
X142863000Y-169760741D01*
X142863000Y-169583259D01*
X142897624Y-169409188D01*
X142965544Y-169245216D01*
X143064147Y-169097646D01*
X143189646Y-168972147D01*
X143337216Y-168873544D01*
X143501188Y-168805624D01*
X143650488Y-168775927D01*
X143675258Y-168771000D01*
X143852742Y-168771000D01*
X143877512Y-168775927D01*
G37*
G36*
X141337512Y-168775927D02*
G01*
X141486812Y-168805624D01*
X141650784Y-168873544D01*
X141798354Y-168972147D01*
X141923853Y-169097646D01*
X142022456Y-169245216D01*
X142090376Y-169409188D01*
X142125000Y-169583259D01*
X142125000Y-169760741D01*
X142090376Y-169934812D01*
X142022456Y-170098784D01*
X141923853Y-170246354D01*
X141798354Y-170371853D01*
X141650784Y-170470456D01*
X141486812Y-170538376D01*
X141337512Y-170568073D01*
X141312742Y-170573000D01*
X141135258Y-170573000D01*
X141110488Y-170568073D01*
X140961188Y-170538376D01*
X140797216Y-170470456D01*
X140649646Y-170371853D01*
X140524147Y-170246354D01*
X140425544Y-170098784D01*
X140357624Y-169934812D01*
X140323000Y-169760741D01*
X140323000Y-169583259D01*
X140357624Y-169409188D01*
X140425544Y-169245216D01*
X140524147Y-169097646D01*
X140649646Y-168972147D01*
X140797216Y-168873544D01*
X140961188Y-168805624D01*
X141110488Y-168775927D01*
X141135258Y-168771000D01*
X141312742Y-168771000D01*
X141337512Y-168775927D01*
G37*
G36*
X143877512Y-166235927D02*
G01*
X144026812Y-166265624D01*
X144190784Y-166333544D01*
X144338354Y-166432147D01*
X144463853Y-166557646D01*
X144562456Y-166705216D01*
X144630376Y-166869188D01*
X144665000Y-167043259D01*
X144665000Y-167220741D01*
X144630376Y-167394812D01*
X144562456Y-167558784D01*
X144463853Y-167706354D01*
X144338354Y-167831853D01*
X144190784Y-167930456D01*
X144026812Y-167998376D01*
X143877512Y-168028073D01*
X143852742Y-168033000D01*
X143675258Y-168033000D01*
X143650488Y-168028073D01*
X143501188Y-167998376D01*
X143337216Y-167930456D01*
X143189646Y-167831853D01*
X143064147Y-167706354D01*
X142965544Y-167558784D01*
X142897624Y-167394812D01*
X142863000Y-167220741D01*
X142863000Y-167043259D01*
X142897624Y-166869188D01*
X142965544Y-166705216D01*
X143064147Y-166557646D01*
X143189646Y-166432147D01*
X143337216Y-166333544D01*
X143501188Y-166265624D01*
X143650488Y-166235927D01*
X143675258Y-166231000D01*
X143852742Y-166231000D01*
X143877512Y-166235927D01*
G37*
G36*
X142125000Y-168033000D02*
G01*
X140323000Y-168033000D01*
X140323000Y-166231000D01*
X142125000Y-166231000D01*
X142125000Y-168033000D01*
G37*
G36*
X131312228Y-166313703D02*
G01*
X131467100Y-166377853D01*
X131606481Y-166470985D01*
X131725015Y-166589519D01*
X131818147Y-166728900D01*
X131882297Y-166883772D01*
X131915000Y-167048184D01*
X131915000Y-167215816D01*
X131882297Y-167380228D01*
X131818147Y-167535100D01*
X131725015Y-167674481D01*
X131606481Y-167793015D01*
X131467100Y-167886147D01*
X131312228Y-167950297D01*
X131147816Y-167983000D01*
X130980184Y-167983000D01*
X130815772Y-167950297D01*
X130660900Y-167886147D01*
X130521519Y-167793015D01*
X130402985Y-167674481D01*
X130309853Y-167535100D01*
X130245703Y-167380228D01*
X130213000Y-167215816D01*
X130213000Y-167048184D01*
X130245703Y-166883772D01*
X130309853Y-166728900D01*
X130402985Y-166589519D01*
X130521519Y-166470985D01*
X130660900Y-166377853D01*
X130815772Y-166313703D01*
X130980184Y-166281000D01*
X131147816Y-166281000D01*
X131312228Y-166313703D01*
G37*
G36*
X122314072Y-161164918D02*
G01*
X122559939Y-161266759D01*
X122781212Y-161414610D01*
X122969390Y-161602788D01*
X123117241Y-161824061D01*
X123219082Y-162069928D01*
X123271000Y-162330938D01*
X123271000Y-162597062D01*
X123219082Y-162858072D01*
X123117241Y-163103939D01*
X122969390Y-163325212D01*
X122781212Y-163513390D01*
X122559939Y-163661241D01*
X122559938Y-163661242D01*
X122559937Y-163661242D01*
X122314072Y-163763082D01*
X122053063Y-163815000D01*
X121786937Y-163815000D01*
X121525928Y-163763082D01*
X121280063Y-163661242D01*
X121280062Y-163661242D01*
X121280061Y-163661241D01*
X121058788Y-163513390D01*
X120870610Y-163325212D01*
X120722759Y-163103939D01*
X120620918Y-162858072D01*
X120569000Y-162597062D01*
X120569000Y-162330938D01*
X120620918Y-162069928D01*
X120722759Y-161824061D01*
X120870610Y-161602788D01*
X121058788Y-161414610D01*
X121280061Y-161266759D01*
X121525928Y-161164918D01*
X121786937Y-161113000D01*
X122053063Y-161113000D01*
X122314072Y-161164918D01*
G37*
G36*
X127014072Y-158164918D02*
G01*
X127259939Y-158266759D01*
X127371328Y-158341187D01*
X127481211Y-158414609D01*
X127669391Y-158602789D01*
X127817242Y-158824063D01*
X127919082Y-159069928D01*
X127971000Y-159330937D01*
X127971000Y-159597063D01*
X127919082Y-159858072D01*
X127837728Y-160054480D01*
X127817241Y-160103939D01*
X127669390Y-160325212D01*
X127481212Y-160513390D01*
X127259939Y-160661241D01*
X127259938Y-160661242D01*
X127259937Y-160661242D01*
X127014072Y-160763082D01*
X126753063Y-160815000D01*
X126486937Y-160815000D01*
X126225928Y-160763082D01*
X125980063Y-160661242D01*
X125980062Y-160661242D01*
X125980061Y-160661241D01*
X125758788Y-160513390D01*
X125570610Y-160325212D01*
X125422759Y-160103939D01*
X125402273Y-160054480D01*
X125320918Y-159858072D01*
X125269000Y-159597063D01*
X125269000Y-159330937D01*
X125320918Y-159069928D01*
X125422758Y-158824063D01*
X125570609Y-158602789D01*
X125758789Y-158414609D01*
X125868672Y-158341187D01*
X125980061Y-158266759D01*
X126225928Y-158164918D01*
X126486937Y-158113000D01*
X126753063Y-158113000D01*
X127014072Y-158164918D01*
G37*
G36*
X131312228Y-158693703D02*
G01*
X131467100Y-158757853D01*
X131606481Y-158850985D01*
X131725015Y-158969519D01*
X131818147Y-159108900D01*
X131882297Y-159263772D01*
X131915000Y-159428184D01*
X131915000Y-159595816D01*
X131882297Y-159760228D01*
X131818147Y-159915100D01*
X131725015Y-160054481D01*
X131606481Y-160173015D01*
X131467100Y-160266147D01*
X131312228Y-160330297D01*
X131147816Y-160363000D01*
X130980184Y-160363000D01*
X130815772Y-160330297D01*
X130660900Y-160266147D01*
X130521519Y-160173015D01*
X130402985Y-160054481D01*
X130309853Y-159915100D01*
X130245703Y-159760228D01*
X130213000Y-159595816D01*
X130213000Y-159428184D01*
X130245703Y-159263772D01*
X130309853Y-159108900D01*
X130402985Y-158969519D01*
X130521519Y-158850985D01*
X130660900Y-158757853D01*
X130815772Y-158693703D01*
X130980184Y-158661000D01*
X131147816Y-158661000D01*
X131312228Y-158693703D01*
G37*
G36*
X123271000Y-157815000D02*
G01*
X120569000Y-157815000D01*
X120569000Y-155113000D01*
X123271000Y-155113000D01*
X123271000Y-157815000D01*
G37*
G36*
X135063000Y-155383000D02*
G01*
X133161000Y-155383000D01*
X133161000Y-153481000D01*
X135063000Y-153481000D01*
X135063000Y-155383000D01*
G37*
G36*
X131849395Y-153517546D02*
G01*
X132022466Y-153589234D01*
X132022467Y-153589235D01*
X132178227Y-153693310D01*
X132310690Y-153825773D01*
X132310691Y-153825775D01*
X132414766Y-153981534D01*
X132486454Y-154154605D01*
X132523000Y-154338333D01*
X132523000Y-154525667D01*
X132486454Y-154709395D01*
X132414766Y-154882466D01*
X132414765Y-154882467D01*
X132310690Y-155038227D01*
X132178227Y-155170690D01*
X132099818Y-155223081D01*
X132022466Y-155274766D01*
X131849395Y-155346454D01*
X131665667Y-155383000D01*
X131478333Y-155383000D01*
X131294605Y-155346454D01*
X131121534Y-155274766D01*
X131044182Y-155223081D01*
X130965773Y-155170690D01*
X130833310Y-155038227D01*
X130729235Y-154882467D01*
X130729234Y-154882466D01*
X130657546Y-154709395D01*
X130621000Y-154525667D01*
X130621000Y-154338333D01*
X130657546Y-154154605D01*
X130729234Y-153981534D01*
X130833309Y-153825775D01*
X130833310Y-153825773D01*
X130965773Y-153693310D01*
X131121533Y-153589235D01*
X131121534Y-153589234D01*
X131294605Y-153517546D01*
X131478333Y-153481000D01*
X131665667Y-153481000D01*
X131849395Y-153517546D01*
G37*
G36*
X118588549Y-147207116D02*
G01*
X118699734Y-147229232D01*
X118909203Y-147315997D01*
X119097720Y-147441960D01*
X119258040Y-147602280D01*
X119384003Y-147790797D01*
X119470768Y-148000266D01*
X119515000Y-148222636D01*
X119515000Y-148449364D01*
X119470768Y-148671734D01*
X119384003Y-148881203D01*
X119258040Y-149069720D01*
X119097720Y-149230040D01*
X118909203Y-149356003D01*
X118699734Y-149442768D01*
X118588549Y-149464884D01*
X118477365Y-149487000D01*
X118250635Y-149487000D01*
X118139451Y-149464884D01*
X118028266Y-149442768D01*
X117818797Y-149356003D01*
X117630280Y-149230040D01*
X117469960Y-149069720D01*
X117343997Y-148881203D01*
X117257232Y-148671734D01*
X117213000Y-148449364D01*
X117213000Y-148222636D01*
X117257232Y-148000266D01*
X117343997Y-147790797D01*
X117469960Y-147602280D01*
X117630280Y-147441960D01*
X117818797Y-147315997D01*
X118028266Y-147229232D01*
X118139451Y-147207116D01*
X118250635Y-147185000D01*
X118477365Y-147185000D01*
X118588549Y-147207116D01*
G37*
G36*
X129675000Y-149487000D02*
G01*
X127373000Y-149487000D01*
X127373000Y-147185000D01*
X129675000Y-147185000D01*
X129675000Y-149487000D01*
G37*
G36*
X135163000Y-148323500D02*
G01*
X133061000Y-148323500D01*
X133061000Y-146316500D01*
X135163000Y-146316500D01*
X135163000Y-148323500D01*
G37*
G36*
X134257936Y-143781340D02*
G01*
X134356220Y-143791020D01*
X134545381Y-143848401D01*
X134719712Y-143941583D01*
X134872515Y-144066985D01*
X134997917Y-144219788D01*
X135091099Y-144394119D01*
X135148480Y-144583280D01*
X135167855Y-144780000D01*
X135148480Y-144976720D01*
X135091099Y-145165881D01*
X134997917Y-145340212D01*
X134872515Y-145493015D01*
X134719712Y-145618417D01*
X134545381Y-145711599D01*
X134356220Y-145768980D01*
X134257936Y-145778660D01*
X134208795Y-145783500D01*
X134015205Y-145783500D01*
X133966064Y-145778660D01*
X133867780Y-145768980D01*
X133678619Y-145711599D01*
X133504288Y-145618417D01*
X133351485Y-145493015D01*
X133226083Y-145340212D01*
X133132901Y-145165881D01*
X133075520Y-144976720D01*
X133056145Y-144780000D01*
X133075520Y-144583280D01*
X133132901Y-144394119D01*
X133226083Y-144219788D01*
X133351485Y-144066985D01*
X133504288Y-143941583D01*
X133678619Y-143848401D01*
X133867780Y-143791020D01*
X133966064Y-143781340D01*
X134015205Y-143776500D01*
X134208795Y-143776500D01*
X134257936Y-143781340D01*
G37*
G36*
X119515000Y-144915000D02*
G01*
X117213000Y-144915000D01*
X117213000Y-142613000D01*
X119515000Y-142613000D01*
X119515000Y-144915000D01*
G37*
G36*
X128748549Y-142635116D02*
G01*
X128859734Y-142657232D01*
X129069203Y-142743997D01*
X129257720Y-142869960D01*
X129418040Y-143030280D01*
X129544003Y-143218797D01*
X129630768Y-143428266D01*
X129675000Y-143650636D01*
X129675000Y-143877364D01*
X129630768Y-144099734D01*
X129544003Y-144309203D01*
X129418040Y-144497720D01*
X129257720Y-144658040D01*
X129069203Y-144784003D01*
X128859734Y-144870768D01*
X128748549Y-144892884D01*
X128637365Y-144915000D01*
X128410635Y-144915000D01*
X128299451Y-144892884D01*
X128188266Y-144870768D01*
X127978797Y-144784003D01*
X127790280Y-144658040D01*
X127629960Y-144497720D01*
X127503997Y-144309203D01*
X127417232Y-144099734D01*
X127373000Y-143877364D01*
X127373000Y-143650636D01*
X127417232Y-143428266D01*
X127503997Y-143218797D01*
X127629960Y-143030280D01*
X127790280Y-142869960D01*
X127978797Y-142743997D01*
X128188266Y-142657232D01*
X128299451Y-142635116D01*
X128410635Y-142613000D01*
X128637365Y-142613000D01*
X128748549Y-142635116D01*
G37*
G36*
X134257936Y-141241340D02*
G01*
X134356220Y-141251020D01*
X134545381Y-141308401D01*
X134719712Y-141401583D01*
X134872515Y-141526985D01*
X134997917Y-141679788D01*
X135091099Y-141854119D01*
X135148480Y-142043280D01*
X135167855Y-142240000D01*
X135148480Y-142436720D01*
X135091099Y-142625881D01*
X134997917Y-142800212D01*
X134872515Y-142953015D01*
X134719712Y-143078417D01*
X134545381Y-143171599D01*
X134356220Y-143228980D01*
X134257936Y-143238660D01*
X134208795Y-143243500D01*
X134015205Y-143243500D01*
X133966064Y-143238660D01*
X133867780Y-143228980D01*
X133678619Y-143171599D01*
X133504288Y-143078417D01*
X133351485Y-142953015D01*
X133226083Y-142800212D01*
X133132901Y-142625881D01*
X133075520Y-142436720D01*
X133056145Y-142240000D01*
X133075520Y-142043280D01*
X133132901Y-141854119D01*
X133226083Y-141679788D01*
X133351485Y-141526985D01*
X133504288Y-141401583D01*
X133678619Y-141308401D01*
X133867780Y-141251020D01*
X133966064Y-141241340D01*
X134015205Y-141236500D01*
X134208795Y-141236500D01*
X134257936Y-141241340D01*
G37*
G36*
X129675000Y-139835000D02*
G01*
X127373000Y-139835000D01*
X127373000Y-137533000D01*
X129675000Y-137533000D01*
X129675000Y-139835000D01*
G37*
G36*
X118588549Y-137555116D02*
G01*
X118699734Y-137577232D01*
X118909203Y-137663997D01*
X119097720Y-137789960D01*
X119258040Y-137950280D01*
X119384003Y-138138797D01*
X119470768Y-138348266D01*
X119515000Y-138570636D01*
X119515000Y-138797364D01*
X119470768Y-139019734D01*
X119384003Y-139229203D01*
X119258040Y-139417720D01*
X119097720Y-139578040D01*
X118909203Y-139704003D01*
X118699734Y-139790768D01*
X118588549Y-139812884D01*
X118477365Y-139835000D01*
X118250635Y-139835000D01*
X118139451Y-139812884D01*
X118028266Y-139790768D01*
X117818797Y-139704003D01*
X117630280Y-139578040D01*
X117469960Y-139417720D01*
X117343997Y-139229203D01*
X117257232Y-139019734D01*
X117213000Y-138797364D01*
X117213000Y-138570636D01*
X117257232Y-138348266D01*
X117343997Y-138138797D01*
X117469960Y-137950280D01*
X117630280Y-137789960D01*
X117818797Y-137663997D01*
X118028266Y-137577232D01*
X118139451Y-137555116D01*
X118250635Y-137533000D01*
X118477365Y-137533000D01*
X118588549Y-137555116D01*
G37*
G36*
X135405395Y-134721546D02*
G01*
X135578466Y-134793234D01*
X135578467Y-134793235D01*
X135734227Y-134897310D01*
X135866690Y-135029773D01*
X135866691Y-135029775D01*
X135970766Y-135185534D01*
X136042454Y-135358605D01*
X136079000Y-135542333D01*
X136079000Y-135729667D01*
X136042454Y-135913395D01*
X135970766Y-136086466D01*
X135970765Y-136086467D01*
X135866690Y-136242227D01*
X135734227Y-136374690D01*
X135655818Y-136427081D01*
X135578466Y-136478766D01*
X135405395Y-136550454D01*
X135221667Y-136587000D01*
X135034333Y-136587000D01*
X134850605Y-136550454D01*
X134677534Y-136478766D01*
X134600182Y-136427081D01*
X134521773Y-136374690D01*
X134389310Y-136242227D01*
X134285235Y-136086467D01*
X134285234Y-136086466D01*
X134213546Y-135913395D01*
X134177000Y-135729667D01*
X134177000Y-135542333D01*
X134213546Y-135358605D01*
X134285234Y-135185534D01*
X134389309Y-135029775D01*
X134389310Y-135029773D01*
X134521773Y-134897310D01*
X134677533Y-134793235D01*
X134677534Y-134793234D01*
X134850605Y-134721546D01*
X135034333Y-134685000D01*
X135221667Y-134685000D01*
X135405395Y-134721546D01*
G37*
G36*
X138619000Y-136587000D02*
G01*
X136717000Y-136587000D01*
X136717000Y-134685000D01*
X138619000Y-134685000D01*
X138619000Y-136587000D01*
G37*
G36*
X128748549Y-132475116D02*
G01*
X128859734Y-132497232D01*
X129069203Y-132583997D01*
X129257720Y-132709960D01*
X129418040Y-132870280D01*
X129544003Y-133058797D01*
X129630768Y-133268266D01*
X129675000Y-133490636D01*
X129675000Y-133717364D01*
X129630768Y-133939734D01*
X129544003Y-134149203D01*
X129418040Y-134337720D01*
X129257720Y-134498040D01*
X129069203Y-134624003D01*
X128859734Y-134710768D01*
X128805549Y-134721546D01*
X128637365Y-134755000D01*
X128410635Y-134755000D01*
X128242451Y-134721546D01*
X128188266Y-134710768D01*
X127978797Y-134624003D01*
X127790280Y-134498040D01*
X127629960Y-134337720D01*
X127503997Y-134149203D01*
X127417232Y-133939734D01*
X127373000Y-133717364D01*
X127373000Y-133490636D01*
X127417232Y-133268266D01*
X127503997Y-133058797D01*
X127629960Y-132870280D01*
X127790280Y-132709960D01*
X127978797Y-132583997D01*
X128188266Y-132497232D01*
X128299451Y-132475116D01*
X128410635Y-132453000D01*
X128637365Y-132453000D01*
X128748549Y-132475116D01*
G37*
G36*
X119515000Y-134755000D02*
G01*
X117213000Y-134755000D01*
X117213000Y-132453000D01*
X119515000Y-132453000D01*
X119515000Y-134755000D01*
G37*
G36*
X128772228Y-128721703D02*
G01*
X128927100Y-128785853D01*
X129066481Y-128878985D01*
X129185015Y-128997519D01*
X129278147Y-129136900D01*
X129342297Y-129291772D01*
X129375000Y-129456184D01*
X129375000Y-129623816D01*
X129342297Y-129788228D01*
X129278147Y-129943100D01*
X129185015Y-130082481D01*
X129066481Y-130201015D01*
X128927100Y-130294147D01*
X128772228Y-130358297D01*
X128607816Y-130391000D01*
X128440184Y-130391000D01*
X128275772Y-130358297D01*
X128120900Y-130294147D01*
X127981519Y-130201015D01*
X127862985Y-130082481D01*
X127769853Y-129943100D01*
X127705703Y-129788228D01*
X127673000Y-129623816D01*
X127673000Y-129456184D01*
X127705703Y-129291772D01*
X127769853Y-129136900D01*
X127862985Y-128997519D01*
X127981519Y-128878985D01*
X128120900Y-128785853D01*
X128275772Y-128721703D01*
X128440184Y-128689000D01*
X128607816Y-128689000D01*
X128772228Y-128721703D01*
G37*
G36*
X136392228Y-128721703D02*
G01*
X136547100Y-128785853D01*
X136686481Y-128878985D01*
X136805015Y-128997519D01*
X136898147Y-129136900D01*
X136962297Y-129291772D01*
X136995000Y-129456184D01*
X136995000Y-129623816D01*
X136962297Y-129788228D01*
X136898147Y-129943100D01*
X136805015Y-130082481D01*
X136686481Y-130201015D01*
X136547100Y-130294147D01*
X136392228Y-130358297D01*
X136227816Y-130391000D01*
X136060184Y-130391000D01*
X135895772Y-130358297D01*
X135740900Y-130294147D01*
X135601519Y-130201015D01*
X135482985Y-130082481D01*
X135389853Y-129943100D01*
X135325703Y-129788228D01*
X135293000Y-129623816D01*
X135293000Y-129456184D01*
X135325703Y-129291772D01*
X135389853Y-129136900D01*
X135482985Y-128997519D01*
X135601519Y-128878985D01*
X135740900Y-128785853D01*
X135895772Y-128721703D01*
X136060184Y-128689000D01*
X136227816Y-128689000D01*
X136392228Y-128721703D01*
G37*
G36*
X120939000Y-126019000D02*
G01*
X118837000Y-126019000D01*
X118837000Y-123917000D01*
X120939000Y-123917000D01*
X120939000Y-126019000D01*
G37*
G36*
X125194564Y-123957389D02*
G01*
X125385833Y-124036615D01*
X125385835Y-124036616D01*
X125392008Y-124040741D01*
X125557973Y-124151635D01*
X125704365Y-124298027D01*
X125819385Y-124470167D01*
X125898611Y-124661436D01*
X125939000Y-124864484D01*
X125939000Y-125071516D01*
X125898611Y-125274564D01*
X125819385Y-125465833D01*
X125819384Y-125465835D01*
X125704365Y-125637973D01*
X125557973Y-125784365D01*
X125385835Y-125899384D01*
X125385834Y-125899385D01*
X125385833Y-125899385D01*
X125194564Y-125978611D01*
X124991516Y-126019000D01*
X124784484Y-126019000D01*
X124581436Y-125978611D01*
X124390167Y-125899385D01*
X124390166Y-125899385D01*
X124390165Y-125899384D01*
X124218027Y-125784365D01*
X124071635Y-125637973D01*
X123956616Y-125465835D01*
X123956615Y-125465833D01*
X123877389Y-125274564D01*
X123837000Y-125071516D01*
X123837000Y-124864484D01*
X123877389Y-124661436D01*
X123956615Y-124470167D01*
X124071635Y-124298027D01*
X124218027Y-124151635D01*
X124383992Y-124040741D01*
X124390165Y-124036616D01*
X124390167Y-124036615D01*
X124581436Y-123957389D01*
X124784484Y-123917000D01*
X124991516Y-123917000D01*
X125194564Y-123957389D01*
G37*
G36*
X144385512Y-123055927D02*
G01*
X144534812Y-123085624D01*
X144698784Y-123153544D01*
X144846354Y-123252147D01*
X144971853Y-123377646D01*
X145070456Y-123525216D01*
X145138376Y-123689188D01*
X145173000Y-123863259D01*
X145173000Y-124040741D01*
X145138376Y-124214812D01*
X145070456Y-124378784D01*
X144971853Y-124526354D01*
X144846354Y-124651853D01*
X144698784Y-124750456D01*
X144534812Y-124818376D01*
X144385512Y-124848073D01*
X144360742Y-124853000D01*
X144183258Y-124853000D01*
X144158488Y-124848073D01*
X144009188Y-124818376D01*
X143845216Y-124750456D01*
X143697646Y-124651853D01*
X143572147Y-124526354D01*
X143473544Y-124378784D01*
X143405624Y-124214812D01*
X143371000Y-124040741D01*
X143371000Y-123863259D01*
X143405624Y-123689188D01*
X143473544Y-123525216D01*
X143572147Y-123377646D01*
X143697646Y-123252147D01*
X143845216Y-123153544D01*
X144009188Y-123085624D01*
X144158488Y-123055927D01*
X144183258Y-123051000D01*
X144360742Y-123051000D01*
X144385512Y-123055927D01*
G37*
G36*
X141845512Y-123055927D02*
G01*
X141994812Y-123085624D01*
X142158784Y-123153544D01*
X142306354Y-123252147D01*
X142431853Y-123377646D01*
X142530456Y-123525216D01*
X142598376Y-123689188D01*
X142633000Y-123863259D01*
X142633000Y-124040741D01*
X142598376Y-124214812D01*
X142530456Y-124378784D01*
X142431853Y-124526354D01*
X142306354Y-124651853D01*
X142158784Y-124750456D01*
X141994812Y-124818376D01*
X141845512Y-124848073D01*
X141820742Y-124853000D01*
X141643258Y-124853000D01*
X141618488Y-124848073D01*
X141469188Y-124818376D01*
X141305216Y-124750456D01*
X141157646Y-124651853D01*
X141032147Y-124526354D01*
X140933544Y-124378784D01*
X140865624Y-124214812D01*
X140831000Y-124040741D01*
X140831000Y-123863259D01*
X140865624Y-123689188D01*
X140933544Y-123525216D01*
X141032147Y-123377646D01*
X141157646Y-123252147D01*
X141305216Y-123153544D01*
X141469188Y-123085624D01*
X141618488Y-123055927D01*
X141643258Y-123051000D01*
X141820742Y-123051000D01*
X141845512Y-123055927D01*
G37*
G36*
X133304228Y-122117703D02*
G01*
X133459100Y-122181853D01*
X133598481Y-122274985D01*
X133717015Y-122393519D01*
X133810147Y-122532900D01*
X133874297Y-122687772D01*
X133907000Y-122852184D01*
X133907000Y-123019816D01*
X133874297Y-123184228D01*
X133810147Y-123339100D01*
X133717015Y-123478481D01*
X133598481Y-123597015D01*
X133459100Y-123690147D01*
X133304228Y-123754297D01*
X133139816Y-123787000D01*
X132972184Y-123787000D01*
X132807772Y-123754297D01*
X132652900Y-123690147D01*
X132513519Y-123597015D01*
X132394985Y-123478481D01*
X132301853Y-123339100D01*
X132237703Y-123184228D01*
X132205000Y-123019816D01*
X132205000Y-122852184D01*
X132237703Y-122687772D01*
X132301853Y-122532900D01*
X132394985Y-122393519D01*
X132513519Y-122274985D01*
X132652900Y-122181853D01*
X132807772Y-122117703D01*
X132972184Y-122085000D01*
X133139816Y-122085000D01*
X133304228Y-122117703D01*
G37*
G36*
X131407000Y-123787000D02*
G01*
X129705000Y-123787000D01*
X129705000Y-122085000D01*
X131407000Y-122085000D01*
X131407000Y-123787000D01*
G37*
G36*
X142633000Y-122313000D02*
G01*
X140831000Y-122313000D01*
X140831000Y-120511000D01*
X142633000Y-120511000D01*
X142633000Y-122313000D01*
G37*
G36*
X144385512Y-120515927D02*
G01*
X144534812Y-120545624D01*
X144698784Y-120613544D01*
X144846354Y-120712147D01*
X144971853Y-120837646D01*
X145070456Y-120985216D01*
X145138376Y-121149188D01*
X145173000Y-121323259D01*
X145173000Y-121500741D01*
X145138376Y-121674812D01*
X145070456Y-121838784D01*
X144971853Y-121986354D01*
X144846354Y-122111853D01*
X144698784Y-122210456D01*
X144534812Y-122278376D01*
X144385512Y-122308073D01*
X144360742Y-122313000D01*
X144183258Y-122313000D01*
X144158488Y-122308073D01*
X144009188Y-122278376D01*
X143845216Y-122210456D01*
X143697646Y-122111853D01*
X143572147Y-121986354D01*
X143473544Y-121838784D01*
X143405624Y-121674812D01*
X143371000Y-121500741D01*
X143371000Y-121323259D01*
X143405624Y-121149188D01*
X143473544Y-120985216D01*
X143572147Y-120837646D01*
X143697646Y-120712147D01*
X143845216Y-120613544D01*
X144009188Y-120545624D01*
X144158488Y-120515927D01*
X144183258Y-120511000D01*
X144360742Y-120511000D01*
X144385512Y-120515927D01*
G37*
M02*
