G04 #@! TF.GenerationSoftware,KiCad,Pcbnew,(5.1.5)-3*
G04 #@! TF.CreationDate,2020-04-25T12:46:16+05:30*
G04 #@! TF.ProjectId,bread power supply schematic,62726561-6420-4706-9f77-657220737570,rev?*
G04 #@! TF.SameCoordinates,Original*
G04 #@! TF.FileFunction,Copper,L2,Bot*
G04 #@! TF.FilePolarity,Positive*
%FSLAX46Y46*%
G04 Gerber Fmt 4.6, Leading zero omitted, Abs format (unit mm)*
G04 Created by KiCad (PCBNEW (5.1.5)-3) date 2020-04-25 12:46:16*
%MOMM*%
%LPD*%
G04 APERTURE LIST*
%ADD10R,2.000000X2.000000*%
%ADD11C,2.000000*%
%ADD12R,1.600000X1.600000*%
%ADD13C,1.600000*%
%ADD14R,2.200000X2.200000*%
%ADD15O,2.200000X2.200000*%
%ADD16C,1.800000*%
%ADD17R,1.800000X1.800000*%
%ADD18R,2.600000X2.600000*%
%ADD19C,2.600000*%
%ADD20O,1.700000X1.700000*%
%ADD21R,1.700000X1.700000*%
%ADD22O,1.600000X1.600000*%
%ADD23R,2.000000X1.905000*%
%ADD24O,2.000000X1.905000*%
%ADD25C,0.250000*%
%ADD26C,0.254000*%
G04 APERTURE END LIST*
D10*
X119888000Y-124968000D03*
D11*
X124888000Y-124968000D03*
D12*
X130556000Y-122936000D03*
D13*
X133056000Y-122936000D03*
D14*
X118364000Y-133604000D03*
D15*
X128524000Y-133604000D03*
X118364000Y-138684000D03*
D14*
X128524000Y-138684000D03*
X118364000Y-143764000D03*
D15*
X128524000Y-143764000D03*
X118364000Y-148336000D03*
D14*
X128524000Y-148336000D03*
D16*
X135128000Y-135636000D03*
D17*
X137668000Y-135636000D03*
X134112000Y-154432000D03*
D16*
X131572000Y-154432000D03*
D18*
X121920000Y-156464000D03*
D19*
X121920000Y-162464000D03*
X126620000Y-159464000D03*
D20*
X143764000Y-169672000D03*
X141224000Y-169672000D03*
X143764000Y-167132000D03*
D21*
X141224000Y-167132000D03*
X141732000Y-121412000D03*
D20*
X144272000Y-121412000D03*
X141732000Y-123952000D03*
X144272000Y-123952000D03*
D22*
X136144000Y-129540000D03*
D13*
X128524000Y-129540000D03*
X131064000Y-159512000D03*
D22*
X131064000Y-167132000D03*
D23*
X134112000Y-147320000D03*
D24*
X134112000Y-144780000D03*
X134112000Y-142240000D03*
D25*
X143764000Y-169672000D02*
X141224000Y-169672000D01*
X141732000Y-123952000D02*
X144272000Y-123952000D01*
X124888000Y-124968000D02*
X131024000Y-124968000D01*
X131024000Y-124968000D02*
X133056000Y-122936000D01*
X124888000Y-124968000D02*
X124888000Y-132160000D01*
X124888000Y-132160000D02*
X118364000Y-138684000D01*
X118364000Y-148336000D02*
X120396000Y-148336000D01*
X124888000Y-143844000D02*
X124888000Y-132160000D01*
X120396000Y-148336000D02*
X124888000Y-143844000D01*
X133056000Y-122936000D02*
X140716000Y-122936000D01*
X140716000Y-122936000D02*
X141732000Y-123952000D01*
X141224000Y-169672000D02*
X139192000Y-169672000D01*
X134112000Y-164592000D02*
X134112000Y-154432000D01*
X139192000Y-169672000D02*
X134112000Y-164592000D01*
X134112000Y-144780000D02*
X135636000Y-144780000D01*
X137668000Y-142748000D02*
X137668000Y-133604000D01*
X135636000Y-144780000D02*
X137668000Y-142748000D01*
X137668000Y-133604000D02*
X137668000Y-126492000D01*
X140208000Y-123952000D02*
X141732000Y-123952000D01*
X137668000Y-126492000D02*
X140208000Y-123952000D01*
X121920000Y-162464000D02*
X121920000Y-160020000D01*
X128524000Y-153416000D02*
X128524000Y-148336000D01*
X121920000Y-160020000D02*
X128524000Y-153416000D01*
X128524000Y-148336000D02*
X128524000Y-143764000D01*
D26*
G36*
X145644001Y-120843812D02*
G01*
X145587990Y-120708589D01*
X145425475Y-120465368D01*
X145218632Y-120258525D01*
X144975411Y-120096010D01*
X144705158Y-119984068D01*
X144418260Y-119927000D01*
X144125740Y-119927000D01*
X143838842Y-119984068D01*
X143568589Y-120096010D01*
X143325368Y-120258525D01*
X143193513Y-120390380D01*
X143171502Y-120317820D01*
X143112537Y-120207506D01*
X143033185Y-120110815D01*
X142936494Y-120031463D01*
X142826180Y-119972498D01*
X142706482Y-119936188D01*
X142582000Y-119923928D01*
X140882000Y-119923928D01*
X140757518Y-119936188D01*
X140637820Y-119972498D01*
X140527506Y-120031463D01*
X140430815Y-120110815D01*
X140351463Y-120207506D01*
X140292498Y-120317820D01*
X140256188Y-120437518D01*
X140243928Y-120562000D01*
X140243928Y-122262000D01*
X140256188Y-122386482D01*
X140292498Y-122506180D01*
X140351463Y-122616494D01*
X140430815Y-122713185D01*
X140527506Y-122792537D01*
X140637820Y-122851502D01*
X140718466Y-122875966D01*
X140634412Y-122951731D01*
X140460359Y-123185080D01*
X140335175Y-123447901D01*
X140290524Y-123595110D01*
X140411845Y-123825000D01*
X141605000Y-123825000D01*
X141605000Y-123805000D01*
X141859000Y-123805000D01*
X141859000Y-123825000D01*
X144145000Y-123825000D01*
X144145000Y-123805000D01*
X144399000Y-123805000D01*
X144399000Y-123825000D01*
X144419000Y-123825000D01*
X144419000Y-124079000D01*
X144399000Y-124079000D01*
X144399000Y-125272814D01*
X144628891Y-125393481D01*
X144903252Y-125296157D01*
X145153355Y-125147178D01*
X145369588Y-124952269D01*
X145543641Y-124718920D01*
X145644000Y-124508218D01*
X145644000Y-125832000D01*
X140240419Y-125832000D01*
X140208000Y-125828807D01*
X140175581Y-125832000D01*
X140078617Y-125841550D01*
X140027686Y-125857000D01*
X139700000Y-125857000D01*
X139675224Y-125859440D01*
X139651399Y-125866667D01*
X139629443Y-125878403D01*
X139610197Y-125894197D01*
X139594403Y-125913443D01*
X139582667Y-125935399D01*
X139575440Y-125959224D01*
X139573081Y-125988533D01*
X139583398Y-126277409D01*
X139557550Y-126362617D01*
X139544807Y-126492000D01*
X139548001Y-126524429D01*
X139548000Y-164559581D01*
X139544807Y-164592000D01*
X139557550Y-164721383D01*
X139573000Y-164772314D01*
X139573000Y-165100000D01*
X139575440Y-165124776D01*
X139582667Y-165148601D01*
X139594403Y-165170557D01*
X139610197Y-165189803D01*
X139629443Y-165205597D01*
X139651399Y-165217333D01*
X139675224Y-165224560D01*
X139700000Y-165227000D01*
X140027686Y-165227000D01*
X140078617Y-165242450D01*
X140208000Y-165255193D01*
X140240419Y-165252000D01*
X145644001Y-165252000D01*
X145644000Y-171044000D01*
X144316761Y-171044000D01*
X144395252Y-171016157D01*
X144645355Y-170867178D01*
X144861588Y-170672269D01*
X145035641Y-170438920D01*
X145160825Y-170176099D01*
X145205476Y-170028890D01*
X145084155Y-169799000D01*
X143891000Y-169799000D01*
X143891000Y-169819000D01*
X143637000Y-169819000D01*
X143637000Y-169799000D01*
X141351000Y-169799000D01*
X141351000Y-169819000D01*
X141097000Y-169819000D01*
X141097000Y-169799000D01*
X139903845Y-169799000D01*
X139782524Y-170028890D01*
X139827175Y-170176099D01*
X139952359Y-170438920D01*
X140126412Y-170672269D01*
X140342645Y-170867178D01*
X140592748Y-171016157D01*
X140671239Y-171044000D01*
X116992000Y-171044000D01*
X116992000Y-166990665D01*
X129629000Y-166990665D01*
X129629000Y-167273335D01*
X129684147Y-167550574D01*
X129792320Y-167811727D01*
X129949363Y-168046759D01*
X130149241Y-168246637D01*
X130384273Y-168403680D01*
X130645426Y-168511853D01*
X130922665Y-168567000D01*
X131205335Y-168567000D01*
X131482574Y-168511853D01*
X131743727Y-168403680D01*
X131978759Y-168246637D01*
X132178637Y-168046759D01*
X132335680Y-167811727D01*
X132443853Y-167550574D01*
X132499000Y-167273335D01*
X132499000Y-166990665D01*
X132443853Y-166713426D01*
X132335680Y-166452273D01*
X132221908Y-166282000D01*
X139735928Y-166282000D01*
X139735928Y-167982000D01*
X139748188Y-168106482D01*
X139784498Y-168226180D01*
X139843463Y-168336494D01*
X139922815Y-168433185D01*
X140019506Y-168512537D01*
X140129820Y-168571502D01*
X140210466Y-168595966D01*
X140126412Y-168671731D01*
X139952359Y-168905080D01*
X139827175Y-169167901D01*
X139782524Y-169315110D01*
X139903845Y-169545000D01*
X141097000Y-169545000D01*
X141097000Y-169525000D01*
X141351000Y-169525000D01*
X141351000Y-169545000D01*
X143637000Y-169545000D01*
X143637000Y-169525000D01*
X143891000Y-169525000D01*
X143891000Y-169545000D01*
X145084155Y-169545000D01*
X145205476Y-169315110D01*
X145160825Y-169167901D01*
X145035641Y-168905080D01*
X144861588Y-168671731D01*
X144645355Y-168476822D01*
X144528466Y-168407195D01*
X144710632Y-168285475D01*
X144917475Y-168078632D01*
X145079990Y-167835411D01*
X145191932Y-167565158D01*
X145249000Y-167278260D01*
X145249000Y-166985740D01*
X145191932Y-166698842D01*
X145079990Y-166428589D01*
X144917475Y-166185368D01*
X144710632Y-165978525D01*
X144467411Y-165816010D01*
X144197158Y-165704068D01*
X143910260Y-165647000D01*
X143617740Y-165647000D01*
X143330842Y-165704068D01*
X143060589Y-165816010D01*
X142817368Y-165978525D01*
X142685513Y-166110380D01*
X142663502Y-166037820D01*
X142604537Y-165927506D01*
X142525185Y-165830815D01*
X142428494Y-165751463D01*
X142318180Y-165692498D01*
X142198482Y-165656188D01*
X142074000Y-165643928D01*
X140374000Y-165643928D01*
X140249518Y-165656188D01*
X140129820Y-165692498D01*
X140019506Y-165751463D01*
X139922815Y-165830815D01*
X139843463Y-165927506D01*
X139784498Y-166037820D01*
X139748188Y-166157518D01*
X139735928Y-166282000D01*
X132221908Y-166282000D01*
X132178637Y-166217241D01*
X131978759Y-166017363D01*
X131743727Y-165860320D01*
X131482574Y-165752147D01*
X131205335Y-165697000D01*
X130922665Y-165697000D01*
X130645426Y-165752147D01*
X130384273Y-165860320D01*
X130149241Y-166017363D01*
X129949363Y-166217241D01*
X129792320Y-166452273D01*
X129684147Y-166713426D01*
X129629000Y-166990665D01*
X116992000Y-166990665D01*
X116992000Y-155164000D01*
X119981928Y-155164000D01*
X119981928Y-157764000D01*
X119994188Y-157888482D01*
X120030498Y-158008180D01*
X120089463Y-158118494D01*
X120168815Y-158215185D01*
X120265506Y-158294537D01*
X120375820Y-158353502D01*
X120495518Y-158389812D01*
X120620000Y-158402072D01*
X122463127Y-158402072D01*
X121408998Y-159456201D01*
X121380000Y-159479999D01*
X121356202Y-159508997D01*
X121356201Y-159508998D01*
X121285026Y-159595724D01*
X121214454Y-159727754D01*
X121170998Y-159871015D01*
X121156324Y-160020000D01*
X121160001Y-160057332D01*
X121160001Y-160684373D01*
X121003434Y-160749225D01*
X120686509Y-160960987D01*
X120416987Y-161230509D01*
X120205225Y-161547434D01*
X120059361Y-161899581D01*
X119985000Y-162273419D01*
X119985000Y-162654581D01*
X120059361Y-163028419D01*
X120205225Y-163380566D01*
X120416987Y-163697491D01*
X120686509Y-163967013D01*
X121003434Y-164178775D01*
X121355581Y-164324639D01*
X121729419Y-164399000D01*
X122110581Y-164399000D01*
X122484419Y-164324639D01*
X122836566Y-164178775D01*
X123153491Y-163967013D01*
X123423013Y-163697491D01*
X123634775Y-163380566D01*
X123780639Y-163028419D01*
X123855000Y-162654581D01*
X123855000Y-162273419D01*
X123780639Y-161899581D01*
X123634775Y-161547434D01*
X123423013Y-161230509D01*
X123153491Y-160960987D01*
X122836566Y-160749225D01*
X122680000Y-160684373D01*
X122680000Y-160334801D01*
X123741382Y-159273419D01*
X124685000Y-159273419D01*
X124685000Y-159654581D01*
X124759361Y-160028419D01*
X124905225Y-160380566D01*
X125116987Y-160697491D01*
X125386509Y-160967013D01*
X125703434Y-161178775D01*
X126055581Y-161324639D01*
X126429419Y-161399000D01*
X126810581Y-161399000D01*
X127184419Y-161324639D01*
X127536566Y-161178775D01*
X127853491Y-160967013D01*
X128123013Y-160697491D01*
X128334775Y-160380566D01*
X128480639Y-160028419D01*
X128555000Y-159654581D01*
X128555000Y-159370665D01*
X129629000Y-159370665D01*
X129629000Y-159653335D01*
X129684147Y-159930574D01*
X129792320Y-160191727D01*
X129949363Y-160426759D01*
X130149241Y-160626637D01*
X130384273Y-160783680D01*
X130645426Y-160891853D01*
X130922665Y-160947000D01*
X131205335Y-160947000D01*
X131482574Y-160891853D01*
X131743727Y-160783680D01*
X131978759Y-160626637D01*
X132178637Y-160426759D01*
X132335680Y-160191727D01*
X132443853Y-159930574D01*
X132499000Y-159653335D01*
X132499000Y-159370665D01*
X132443853Y-159093426D01*
X132335680Y-158832273D01*
X132178637Y-158597241D01*
X131978759Y-158397363D01*
X131743727Y-158240320D01*
X131482574Y-158132147D01*
X131205335Y-158077000D01*
X130922665Y-158077000D01*
X130645426Y-158132147D01*
X130384273Y-158240320D01*
X130149241Y-158397363D01*
X129949363Y-158597241D01*
X129792320Y-158832273D01*
X129684147Y-159093426D01*
X129629000Y-159370665D01*
X128555000Y-159370665D01*
X128555000Y-159273419D01*
X128480639Y-158899581D01*
X128334775Y-158547434D01*
X128123013Y-158230509D01*
X127853491Y-157960987D01*
X127536566Y-157749225D01*
X127184419Y-157603361D01*
X126810581Y-157529000D01*
X126429419Y-157529000D01*
X126055581Y-157603361D01*
X125703434Y-157749225D01*
X125386509Y-157960987D01*
X125116987Y-158230509D01*
X124905225Y-158547434D01*
X124759361Y-158899581D01*
X124685000Y-159273419D01*
X123741382Y-159273419D01*
X128733985Y-154280816D01*
X130037000Y-154280816D01*
X130037000Y-154583184D01*
X130095989Y-154879743D01*
X130211701Y-155159095D01*
X130379688Y-155410505D01*
X130593495Y-155624312D01*
X130844905Y-155792299D01*
X131124257Y-155908011D01*
X131420816Y-155967000D01*
X131723184Y-155967000D01*
X132019743Y-155908011D01*
X132299095Y-155792299D01*
X132550505Y-155624312D01*
X132616944Y-155557873D01*
X132622498Y-155576180D01*
X132681463Y-155686494D01*
X132760815Y-155783185D01*
X132857506Y-155862537D01*
X132967820Y-155921502D01*
X133087518Y-155957812D01*
X133212000Y-155970072D01*
X133826250Y-155967000D01*
X133985000Y-155808250D01*
X133985000Y-154559000D01*
X134239000Y-154559000D01*
X134239000Y-155808250D01*
X134397750Y-155967000D01*
X135012000Y-155970072D01*
X135136482Y-155957812D01*
X135256180Y-155921502D01*
X135366494Y-155862537D01*
X135463185Y-155783185D01*
X135542537Y-155686494D01*
X135601502Y-155576180D01*
X135637812Y-155456482D01*
X135650072Y-155332000D01*
X135647000Y-154717750D01*
X135488250Y-154559000D01*
X134239000Y-154559000D01*
X133985000Y-154559000D01*
X133965000Y-154559000D01*
X133965000Y-154305000D01*
X133985000Y-154305000D01*
X133985000Y-153055750D01*
X134239000Y-153055750D01*
X134239000Y-154305000D01*
X135488250Y-154305000D01*
X135647000Y-154146250D01*
X135650072Y-153532000D01*
X135637812Y-153407518D01*
X135601502Y-153287820D01*
X135542537Y-153177506D01*
X135463185Y-153080815D01*
X135366494Y-153001463D01*
X135256180Y-152942498D01*
X135136482Y-152906188D01*
X135012000Y-152893928D01*
X134397750Y-152897000D01*
X134239000Y-153055750D01*
X133985000Y-153055750D01*
X133826250Y-152897000D01*
X133212000Y-152893928D01*
X133087518Y-152906188D01*
X132967820Y-152942498D01*
X132857506Y-153001463D01*
X132760815Y-153080815D01*
X132681463Y-153177506D01*
X132622498Y-153287820D01*
X132616944Y-153306127D01*
X132550505Y-153239688D01*
X132299095Y-153071701D01*
X132019743Y-152955989D01*
X131723184Y-152897000D01*
X131420816Y-152897000D01*
X131124257Y-152955989D01*
X130844905Y-153071701D01*
X130593495Y-153239688D01*
X130379688Y-153453495D01*
X130211701Y-153704905D01*
X130095989Y-153984257D01*
X130037000Y-154280816D01*
X128733985Y-154280816D01*
X129035004Y-153979798D01*
X129064001Y-153956001D01*
X129158974Y-153840276D01*
X129229546Y-153708247D01*
X129273003Y-153564986D01*
X129284000Y-153453333D01*
X129284000Y-153453324D01*
X129287676Y-153416001D01*
X129284000Y-153378678D01*
X129284000Y-150074072D01*
X129624000Y-150074072D01*
X129748482Y-150061812D01*
X129868180Y-150025502D01*
X129978494Y-149966537D01*
X130075185Y-149887185D01*
X130154537Y-149790494D01*
X130213502Y-149680180D01*
X130249812Y-149560482D01*
X130262072Y-149436000D01*
X130262072Y-147236000D01*
X130249812Y-147111518D01*
X130213502Y-146991820D01*
X130154537Y-146881506D01*
X130075185Y-146784815D01*
X129978494Y-146705463D01*
X129868180Y-146646498D01*
X129748482Y-146610188D01*
X129624000Y-146597928D01*
X129284000Y-146597928D01*
X129284000Y-146367500D01*
X132473928Y-146367500D01*
X132473928Y-148272500D01*
X132486188Y-148396982D01*
X132522498Y-148516680D01*
X132581463Y-148626994D01*
X132660815Y-148723685D01*
X132757506Y-148803037D01*
X132867820Y-148862002D01*
X132987518Y-148898312D01*
X133112000Y-148910572D01*
X135112000Y-148910572D01*
X135236482Y-148898312D01*
X135356180Y-148862002D01*
X135466494Y-148803037D01*
X135563185Y-148723685D01*
X135642537Y-148626994D01*
X135701502Y-148516680D01*
X135737812Y-148396982D01*
X135750072Y-148272500D01*
X135750072Y-146367500D01*
X135737812Y-146243018D01*
X135701502Y-146123320D01*
X135642537Y-146013006D01*
X135563185Y-145916315D01*
X135466494Y-145836963D01*
X135374781Y-145787941D01*
X135487969Y-145646923D01*
X135631571Y-145371094D01*
X135702563Y-145152980D01*
X135582594Y-144907000D01*
X134239000Y-144907000D01*
X134239000Y-144927000D01*
X133985000Y-144927000D01*
X133985000Y-144907000D01*
X132641406Y-144907000D01*
X132521437Y-145152980D01*
X132592429Y-145371094D01*
X132736031Y-145646923D01*
X132849219Y-145787941D01*
X132757506Y-145836963D01*
X132660815Y-145916315D01*
X132581463Y-146013006D01*
X132522498Y-146123320D01*
X132486188Y-146243018D01*
X132473928Y-146367500D01*
X129284000Y-146367500D01*
X129284000Y-145327148D01*
X129345831Y-145301537D01*
X129629998Y-145111663D01*
X129871663Y-144869998D01*
X130061537Y-144585831D01*
X130192325Y-144270081D01*
X130259000Y-143934883D01*
X130259000Y-143593117D01*
X130192325Y-143257919D01*
X130061537Y-142942169D01*
X129871663Y-142658002D01*
X129629998Y-142416337D01*
X129366091Y-142240000D01*
X132469319Y-142240000D01*
X132499970Y-142551204D01*
X132590745Y-142850449D01*
X132738155Y-143126235D01*
X132936537Y-143367963D01*
X133115899Y-143515163D01*
X132930685Y-143670563D01*
X132736031Y-143913077D01*
X132592429Y-144188906D01*
X132521437Y-144407020D01*
X132641406Y-144653000D01*
X133985000Y-144653000D01*
X133985000Y-144633000D01*
X134239000Y-144633000D01*
X134239000Y-144653000D01*
X135582594Y-144653000D01*
X135702563Y-144407020D01*
X135631571Y-144188906D01*
X135487969Y-143913077D01*
X135293315Y-143670563D01*
X135108101Y-143515163D01*
X135287463Y-143367963D01*
X135485845Y-143126235D01*
X135633255Y-142850449D01*
X135724030Y-142551204D01*
X135754681Y-142240000D01*
X135724030Y-141928796D01*
X135633255Y-141629551D01*
X135485845Y-141353765D01*
X135287463Y-141112037D01*
X135045735Y-140913655D01*
X134769949Y-140766245D01*
X134470704Y-140675470D01*
X134237486Y-140652500D01*
X133986514Y-140652500D01*
X133753296Y-140675470D01*
X133454051Y-140766245D01*
X133178265Y-140913655D01*
X132936537Y-141112037D01*
X132738155Y-141353765D01*
X132590745Y-141629551D01*
X132499970Y-141928796D01*
X132469319Y-142240000D01*
X129366091Y-142240000D01*
X129345831Y-142226463D01*
X129030081Y-142095675D01*
X128694883Y-142029000D01*
X128353117Y-142029000D01*
X128017919Y-142095675D01*
X127702169Y-142226463D01*
X127418002Y-142416337D01*
X127176337Y-142658002D01*
X126986463Y-142942169D01*
X126855675Y-143257919D01*
X126789000Y-143593117D01*
X126789000Y-143934883D01*
X126855675Y-144270081D01*
X126986463Y-144585831D01*
X127176337Y-144869998D01*
X127418002Y-145111663D01*
X127702169Y-145301537D01*
X127764001Y-145327149D01*
X127764000Y-146597928D01*
X127424000Y-146597928D01*
X127299518Y-146610188D01*
X127179820Y-146646498D01*
X127069506Y-146705463D01*
X126972815Y-146784815D01*
X126893463Y-146881506D01*
X126834498Y-146991820D01*
X126798188Y-147111518D01*
X126785928Y-147236000D01*
X126785928Y-149436000D01*
X126798188Y-149560482D01*
X126834498Y-149680180D01*
X126893463Y-149790494D01*
X126972815Y-149887185D01*
X127069506Y-149966537D01*
X127179820Y-150025502D01*
X127299518Y-150061812D01*
X127424000Y-150074072D01*
X127764001Y-150074072D01*
X127764000Y-153101198D01*
X123858072Y-157007127D01*
X123858072Y-155164000D01*
X123845812Y-155039518D01*
X123809502Y-154919820D01*
X123750537Y-154809506D01*
X123671185Y-154712815D01*
X123574494Y-154633463D01*
X123464180Y-154574498D01*
X123344482Y-154538188D01*
X123220000Y-154525928D01*
X120620000Y-154525928D01*
X120495518Y-154538188D01*
X120375820Y-154574498D01*
X120265506Y-154633463D01*
X120168815Y-154712815D01*
X120089463Y-154809506D01*
X120030498Y-154919820D01*
X119994188Y-155039518D01*
X119981928Y-155164000D01*
X116992000Y-155164000D01*
X116992000Y-149384302D01*
X117096178Y-149520427D01*
X117351609Y-149745008D01*
X117645946Y-149915442D01*
X117967877Y-150025179D01*
X118237000Y-149907600D01*
X118237000Y-148463000D01*
X118491000Y-148463000D01*
X118491000Y-149907600D01*
X118760123Y-150025179D01*
X119082054Y-149915442D01*
X119376391Y-149745008D01*
X119631822Y-149520427D01*
X119838531Y-149250329D01*
X119988575Y-148945094D01*
X120053175Y-148732122D01*
X119935125Y-148463000D01*
X118491000Y-148463000D01*
X118237000Y-148463000D01*
X118217000Y-148463000D01*
X118217000Y-148209000D01*
X118237000Y-148209000D01*
X118237000Y-146764400D01*
X118491000Y-146764400D01*
X118491000Y-148209000D01*
X119935125Y-148209000D01*
X120053175Y-147939878D01*
X119988575Y-147726906D01*
X119838531Y-147421671D01*
X119631822Y-147151573D01*
X119376391Y-146926992D01*
X119082054Y-146756558D01*
X118760123Y-146646821D01*
X118491000Y-146764400D01*
X118237000Y-146764400D01*
X117967877Y-146646821D01*
X117645946Y-146756558D01*
X117351609Y-146926992D01*
X117096178Y-147151573D01*
X116992000Y-147287698D01*
X116992000Y-145438632D01*
X117019820Y-145453502D01*
X117139518Y-145489812D01*
X117264000Y-145502072D01*
X119464000Y-145502072D01*
X119588482Y-145489812D01*
X119708180Y-145453502D01*
X119818494Y-145394537D01*
X119915185Y-145315185D01*
X119994537Y-145218494D01*
X120053502Y-145108180D01*
X120089812Y-144988482D01*
X120102072Y-144864000D01*
X120102072Y-142664000D01*
X120089812Y-142539518D01*
X120053502Y-142419820D01*
X119994537Y-142309506D01*
X119915185Y-142212815D01*
X119818494Y-142133463D01*
X119708180Y-142074498D01*
X119588482Y-142038188D01*
X119464000Y-142025928D01*
X117264000Y-142025928D01*
X117139518Y-142038188D01*
X117019820Y-142074498D01*
X116992000Y-142089368D01*
X116992000Y-139732302D01*
X117096178Y-139868427D01*
X117351609Y-140093008D01*
X117645946Y-140263442D01*
X117967877Y-140373179D01*
X118237000Y-140255600D01*
X118237000Y-138811000D01*
X118491000Y-138811000D01*
X118491000Y-140255600D01*
X118760123Y-140373179D01*
X119082054Y-140263442D01*
X119376391Y-140093008D01*
X119631822Y-139868427D01*
X119838531Y-139598329D01*
X119988575Y-139293094D01*
X120053175Y-139080122D01*
X119935125Y-138811000D01*
X118491000Y-138811000D01*
X118237000Y-138811000D01*
X118217000Y-138811000D01*
X118217000Y-138557000D01*
X118237000Y-138557000D01*
X118237000Y-137112400D01*
X118491000Y-137112400D01*
X118491000Y-138557000D01*
X119935125Y-138557000D01*
X120053175Y-138287878D01*
X119988575Y-138074906D01*
X119838531Y-137769671D01*
X119696435Y-137584000D01*
X126785928Y-137584000D01*
X126785928Y-139784000D01*
X126798188Y-139908482D01*
X126834498Y-140028180D01*
X126893463Y-140138494D01*
X126972815Y-140235185D01*
X127069506Y-140314537D01*
X127179820Y-140373502D01*
X127299518Y-140409812D01*
X127424000Y-140422072D01*
X129624000Y-140422072D01*
X129748482Y-140409812D01*
X129868180Y-140373502D01*
X129978494Y-140314537D01*
X130075185Y-140235185D01*
X130154537Y-140138494D01*
X130213502Y-140028180D01*
X130249812Y-139908482D01*
X130262072Y-139784000D01*
X130262072Y-137584000D01*
X130249812Y-137459518D01*
X130213502Y-137339820D01*
X130154537Y-137229506D01*
X130075185Y-137132815D01*
X129978494Y-137053463D01*
X129868180Y-136994498D01*
X129748482Y-136958188D01*
X129624000Y-136945928D01*
X127424000Y-136945928D01*
X127299518Y-136958188D01*
X127179820Y-136994498D01*
X127069506Y-137053463D01*
X126972815Y-137132815D01*
X126893463Y-137229506D01*
X126834498Y-137339820D01*
X126798188Y-137459518D01*
X126785928Y-137584000D01*
X119696435Y-137584000D01*
X119631822Y-137499573D01*
X119376391Y-137274992D01*
X119082054Y-137104558D01*
X118760123Y-136994821D01*
X118491000Y-137112400D01*
X118237000Y-137112400D01*
X117967877Y-136994821D01*
X117645946Y-137104558D01*
X117351609Y-137274992D01*
X117096178Y-137499573D01*
X116992000Y-137635698D01*
X116992000Y-135484816D01*
X133593000Y-135484816D01*
X133593000Y-135787184D01*
X133651989Y-136083743D01*
X133767701Y-136363095D01*
X133935688Y-136614505D01*
X134149495Y-136828312D01*
X134400905Y-136996299D01*
X134680257Y-137112011D01*
X134976816Y-137171000D01*
X135279184Y-137171000D01*
X135575743Y-137112011D01*
X135855095Y-136996299D01*
X136106505Y-136828312D01*
X136172944Y-136761873D01*
X136178498Y-136780180D01*
X136237463Y-136890494D01*
X136316815Y-136987185D01*
X136413506Y-137066537D01*
X136523820Y-137125502D01*
X136643518Y-137161812D01*
X136768000Y-137174072D01*
X137382250Y-137171000D01*
X137541000Y-137012250D01*
X137541000Y-135763000D01*
X137795000Y-135763000D01*
X137795000Y-137012250D01*
X137953750Y-137171000D01*
X138568000Y-137174072D01*
X138692482Y-137161812D01*
X138812180Y-137125502D01*
X138922494Y-137066537D01*
X139019185Y-136987185D01*
X139098537Y-136890494D01*
X139157502Y-136780180D01*
X139193812Y-136660482D01*
X139206072Y-136536000D01*
X139203000Y-135921750D01*
X139044250Y-135763000D01*
X137795000Y-135763000D01*
X137541000Y-135763000D01*
X137521000Y-135763000D01*
X137521000Y-135509000D01*
X137541000Y-135509000D01*
X137541000Y-134259750D01*
X137795000Y-134259750D01*
X137795000Y-135509000D01*
X139044250Y-135509000D01*
X139203000Y-135350250D01*
X139206072Y-134736000D01*
X139193812Y-134611518D01*
X139157502Y-134491820D01*
X139098537Y-134381506D01*
X139019185Y-134284815D01*
X138922494Y-134205463D01*
X138812180Y-134146498D01*
X138692482Y-134110188D01*
X138568000Y-134097928D01*
X137953750Y-134101000D01*
X137795000Y-134259750D01*
X137541000Y-134259750D01*
X137382250Y-134101000D01*
X136768000Y-134097928D01*
X136643518Y-134110188D01*
X136523820Y-134146498D01*
X136413506Y-134205463D01*
X136316815Y-134284815D01*
X136237463Y-134381506D01*
X136178498Y-134491820D01*
X136172944Y-134510127D01*
X136106505Y-134443688D01*
X135855095Y-134275701D01*
X135575743Y-134159989D01*
X135279184Y-134101000D01*
X134976816Y-134101000D01*
X134680257Y-134159989D01*
X134400905Y-134275701D01*
X134149495Y-134443688D01*
X133935688Y-134657495D01*
X133767701Y-134908905D01*
X133651989Y-135188257D01*
X133593000Y-135484816D01*
X116992000Y-135484816D01*
X116992000Y-135278632D01*
X117019820Y-135293502D01*
X117139518Y-135329812D01*
X117264000Y-135342072D01*
X119464000Y-135342072D01*
X119588482Y-135329812D01*
X119708180Y-135293502D01*
X119818494Y-135234537D01*
X119915185Y-135155185D01*
X119994537Y-135058494D01*
X120053502Y-134948180D01*
X120089812Y-134828482D01*
X120102072Y-134704000D01*
X120102072Y-133433117D01*
X126789000Y-133433117D01*
X126789000Y-133774883D01*
X126855675Y-134110081D01*
X126986463Y-134425831D01*
X127176337Y-134709998D01*
X127418002Y-134951663D01*
X127702169Y-135141537D01*
X128017919Y-135272325D01*
X128353117Y-135339000D01*
X128694883Y-135339000D01*
X129030081Y-135272325D01*
X129345831Y-135141537D01*
X129629998Y-134951663D01*
X129871663Y-134709998D01*
X130061537Y-134425831D01*
X130192325Y-134110081D01*
X130259000Y-133774883D01*
X130259000Y-133433117D01*
X130192325Y-133097919D01*
X130061537Y-132782169D01*
X129871663Y-132498002D01*
X129629998Y-132256337D01*
X129345831Y-132066463D01*
X129030081Y-131935675D01*
X128694883Y-131869000D01*
X128353117Y-131869000D01*
X128017919Y-131935675D01*
X127702169Y-132066463D01*
X127418002Y-132256337D01*
X127176337Y-132498002D01*
X126986463Y-132782169D01*
X126855675Y-133097919D01*
X126789000Y-133433117D01*
X120102072Y-133433117D01*
X120102072Y-132504000D01*
X120089812Y-132379518D01*
X120053502Y-132259820D01*
X119994537Y-132149506D01*
X119915185Y-132052815D01*
X119818494Y-131973463D01*
X119708180Y-131914498D01*
X119588482Y-131878188D01*
X119464000Y-131865928D01*
X117264000Y-131865928D01*
X117139518Y-131878188D01*
X117019820Y-131914498D01*
X116992000Y-131929368D01*
X116992000Y-129398665D01*
X127089000Y-129398665D01*
X127089000Y-129681335D01*
X127144147Y-129958574D01*
X127252320Y-130219727D01*
X127409363Y-130454759D01*
X127609241Y-130654637D01*
X127844273Y-130811680D01*
X128105426Y-130919853D01*
X128382665Y-130975000D01*
X128665335Y-130975000D01*
X128942574Y-130919853D01*
X129203727Y-130811680D01*
X129438759Y-130654637D01*
X129638637Y-130454759D01*
X129795680Y-130219727D01*
X129903853Y-129958574D01*
X129959000Y-129681335D01*
X129959000Y-129398665D01*
X134709000Y-129398665D01*
X134709000Y-129681335D01*
X134764147Y-129958574D01*
X134872320Y-130219727D01*
X135029363Y-130454759D01*
X135229241Y-130654637D01*
X135464273Y-130811680D01*
X135725426Y-130919853D01*
X136002665Y-130975000D01*
X136285335Y-130975000D01*
X136562574Y-130919853D01*
X136823727Y-130811680D01*
X137058759Y-130654637D01*
X137258637Y-130454759D01*
X137415680Y-130219727D01*
X137523853Y-129958574D01*
X137579000Y-129681335D01*
X137579000Y-129398665D01*
X137523853Y-129121426D01*
X137415680Y-128860273D01*
X137258637Y-128625241D01*
X137058759Y-128425363D01*
X136823727Y-128268320D01*
X136562574Y-128160147D01*
X136285335Y-128105000D01*
X136002665Y-128105000D01*
X135725426Y-128160147D01*
X135464273Y-128268320D01*
X135229241Y-128425363D01*
X135029363Y-128625241D01*
X134872320Y-128860273D01*
X134764147Y-129121426D01*
X134709000Y-129398665D01*
X129959000Y-129398665D01*
X129903853Y-129121426D01*
X129795680Y-128860273D01*
X129638637Y-128625241D01*
X129438759Y-128425363D01*
X129203727Y-128268320D01*
X128942574Y-128160147D01*
X128665335Y-128105000D01*
X128382665Y-128105000D01*
X128105426Y-128160147D01*
X127844273Y-128268320D01*
X127609241Y-128425363D01*
X127409363Y-128625241D01*
X127252320Y-128860273D01*
X127144147Y-129121426D01*
X127089000Y-129398665D01*
X116992000Y-129398665D01*
X116992000Y-123968000D01*
X118249928Y-123968000D01*
X118249928Y-125968000D01*
X118262188Y-126092482D01*
X118298498Y-126212180D01*
X118357463Y-126322494D01*
X118436815Y-126419185D01*
X118533506Y-126498537D01*
X118643820Y-126557502D01*
X118763518Y-126593812D01*
X118888000Y-126606072D01*
X120888000Y-126606072D01*
X121012482Y-126593812D01*
X121132180Y-126557502D01*
X121242494Y-126498537D01*
X121339185Y-126419185D01*
X121418537Y-126322494D01*
X121477502Y-126212180D01*
X121510496Y-126103413D01*
X123932192Y-126103413D01*
X124027956Y-126367814D01*
X124317571Y-126508704D01*
X124629108Y-126590384D01*
X124950595Y-126609718D01*
X125269675Y-126565961D01*
X125574088Y-126460795D01*
X125748044Y-126367814D01*
X125843808Y-126103413D01*
X124888000Y-125147605D01*
X123932192Y-126103413D01*
X121510496Y-126103413D01*
X121513812Y-126092482D01*
X121526072Y-125968000D01*
X121526072Y-125030595D01*
X123246282Y-125030595D01*
X123290039Y-125349675D01*
X123395205Y-125654088D01*
X123488186Y-125828044D01*
X123752587Y-125923808D01*
X124708395Y-124968000D01*
X125067605Y-124968000D01*
X126023413Y-125923808D01*
X126287814Y-125828044D01*
X126428704Y-125538429D01*
X126510384Y-125226892D01*
X126529718Y-124905405D01*
X126485961Y-124586325D01*
X126380795Y-124281912D01*
X126287814Y-124107956D01*
X126023413Y-124012192D01*
X125067605Y-124968000D01*
X124708395Y-124968000D01*
X123752587Y-124012192D01*
X123488186Y-124107956D01*
X123347296Y-124397571D01*
X123265616Y-124709108D01*
X123246282Y-125030595D01*
X121526072Y-125030595D01*
X121526072Y-123968000D01*
X121513812Y-123843518D01*
X121510497Y-123832587D01*
X123932192Y-123832587D01*
X124888000Y-124788395D01*
X125843808Y-123832587D01*
X125748044Y-123568186D01*
X125458429Y-123427296D01*
X125146892Y-123345616D01*
X124825405Y-123326282D01*
X124506325Y-123370039D01*
X124201912Y-123475205D01*
X124027956Y-123568186D01*
X123932192Y-123832587D01*
X121510497Y-123832587D01*
X121477502Y-123723820D01*
X121418537Y-123613506D01*
X121339185Y-123516815D01*
X121242494Y-123437463D01*
X121132180Y-123378498D01*
X121012482Y-123342188D01*
X120888000Y-123329928D01*
X118888000Y-123329928D01*
X118763518Y-123342188D01*
X118643820Y-123378498D01*
X118533506Y-123437463D01*
X118436815Y-123516815D01*
X118357463Y-123613506D01*
X118298498Y-123723820D01*
X118262188Y-123843518D01*
X118249928Y-123968000D01*
X116992000Y-123968000D01*
X116992000Y-122136000D01*
X129117928Y-122136000D01*
X129117928Y-123736000D01*
X129130188Y-123860482D01*
X129166498Y-123980180D01*
X129225463Y-124090494D01*
X129304815Y-124187185D01*
X129401506Y-124266537D01*
X129511820Y-124325502D01*
X129631518Y-124361812D01*
X129756000Y-124374072D01*
X131356000Y-124374072D01*
X131480482Y-124361812D01*
X131600180Y-124325502D01*
X131710494Y-124266537D01*
X131807185Y-124187185D01*
X131886537Y-124090494D01*
X131945502Y-123980180D01*
X131961117Y-123928702D01*
X132242903Y-123928702D01*
X132314486Y-124172671D01*
X132569996Y-124293571D01*
X132844184Y-124362300D01*
X133126512Y-124376217D01*
X133406130Y-124334787D01*
X133478545Y-124308890D01*
X140290524Y-124308890D01*
X140335175Y-124456099D01*
X140460359Y-124718920D01*
X140634412Y-124952269D01*
X140850645Y-125147178D01*
X141100748Y-125296157D01*
X141375109Y-125393481D01*
X141605000Y-125272814D01*
X141605000Y-124079000D01*
X141859000Y-124079000D01*
X141859000Y-125272814D01*
X142088891Y-125393481D01*
X142363252Y-125296157D01*
X142613355Y-125147178D01*
X142829588Y-124952269D01*
X143002000Y-124721120D01*
X143174412Y-124952269D01*
X143390645Y-125147178D01*
X143640748Y-125296157D01*
X143915109Y-125393481D01*
X144145000Y-125272814D01*
X144145000Y-124079000D01*
X141859000Y-124079000D01*
X141605000Y-124079000D01*
X140411845Y-124079000D01*
X140290524Y-124308890D01*
X133478545Y-124308890D01*
X133672292Y-124239603D01*
X133797514Y-124172671D01*
X133869097Y-123928702D01*
X133056000Y-123115605D01*
X132242903Y-123928702D01*
X131961117Y-123928702D01*
X131981812Y-123860482D01*
X131994072Y-123736000D01*
X131994072Y-123728785D01*
X132063298Y-123749097D01*
X132876395Y-122936000D01*
X133235605Y-122936000D01*
X134048702Y-123749097D01*
X134292671Y-123677514D01*
X134413571Y-123422004D01*
X134482300Y-123147816D01*
X134496217Y-122865488D01*
X134454787Y-122585870D01*
X134359603Y-122319708D01*
X134292671Y-122194486D01*
X134048702Y-122122903D01*
X133235605Y-122936000D01*
X132876395Y-122936000D01*
X132063298Y-122122903D01*
X131994072Y-122143215D01*
X131994072Y-122136000D01*
X131981812Y-122011518D01*
X131961118Y-121943298D01*
X132242903Y-121943298D01*
X133056000Y-122756395D01*
X133869097Y-121943298D01*
X133797514Y-121699329D01*
X133542004Y-121578429D01*
X133267816Y-121509700D01*
X132985488Y-121495783D01*
X132705870Y-121537213D01*
X132439708Y-121632397D01*
X132314486Y-121699329D01*
X132242903Y-121943298D01*
X131961118Y-121943298D01*
X131945502Y-121891820D01*
X131886537Y-121781506D01*
X131807185Y-121684815D01*
X131710494Y-121605463D01*
X131600180Y-121546498D01*
X131480482Y-121510188D01*
X131356000Y-121497928D01*
X129756000Y-121497928D01*
X129631518Y-121510188D01*
X129511820Y-121546498D01*
X129401506Y-121605463D01*
X129304815Y-121684815D01*
X129225463Y-121781506D01*
X129166498Y-121891820D01*
X129130188Y-122011518D01*
X129117928Y-122136000D01*
X116992000Y-122136000D01*
X116992000Y-119532000D01*
X145644001Y-119532000D01*
X145644001Y-120843812D01*
G37*
X145644001Y-120843812D02*
X145587990Y-120708589D01*
X145425475Y-120465368D01*
X145218632Y-120258525D01*
X144975411Y-120096010D01*
X144705158Y-119984068D01*
X144418260Y-119927000D01*
X144125740Y-119927000D01*
X143838842Y-119984068D01*
X143568589Y-120096010D01*
X143325368Y-120258525D01*
X143193513Y-120390380D01*
X143171502Y-120317820D01*
X143112537Y-120207506D01*
X143033185Y-120110815D01*
X142936494Y-120031463D01*
X142826180Y-119972498D01*
X142706482Y-119936188D01*
X142582000Y-119923928D01*
X140882000Y-119923928D01*
X140757518Y-119936188D01*
X140637820Y-119972498D01*
X140527506Y-120031463D01*
X140430815Y-120110815D01*
X140351463Y-120207506D01*
X140292498Y-120317820D01*
X140256188Y-120437518D01*
X140243928Y-120562000D01*
X140243928Y-122262000D01*
X140256188Y-122386482D01*
X140292498Y-122506180D01*
X140351463Y-122616494D01*
X140430815Y-122713185D01*
X140527506Y-122792537D01*
X140637820Y-122851502D01*
X140718466Y-122875966D01*
X140634412Y-122951731D01*
X140460359Y-123185080D01*
X140335175Y-123447901D01*
X140290524Y-123595110D01*
X140411845Y-123825000D01*
X141605000Y-123825000D01*
X141605000Y-123805000D01*
X141859000Y-123805000D01*
X141859000Y-123825000D01*
X144145000Y-123825000D01*
X144145000Y-123805000D01*
X144399000Y-123805000D01*
X144399000Y-123825000D01*
X144419000Y-123825000D01*
X144419000Y-124079000D01*
X144399000Y-124079000D01*
X144399000Y-125272814D01*
X144628891Y-125393481D01*
X144903252Y-125296157D01*
X145153355Y-125147178D01*
X145369588Y-124952269D01*
X145543641Y-124718920D01*
X145644000Y-124508218D01*
X145644000Y-125832000D01*
X140240419Y-125832000D01*
X140208000Y-125828807D01*
X140175581Y-125832000D01*
X140078617Y-125841550D01*
X140027686Y-125857000D01*
X139700000Y-125857000D01*
X139675224Y-125859440D01*
X139651399Y-125866667D01*
X139629443Y-125878403D01*
X139610197Y-125894197D01*
X139594403Y-125913443D01*
X139582667Y-125935399D01*
X139575440Y-125959224D01*
X139573081Y-125988533D01*
X139583398Y-126277409D01*
X139557550Y-126362617D01*
X139544807Y-126492000D01*
X139548001Y-126524429D01*
X139548000Y-164559581D01*
X139544807Y-164592000D01*
X139557550Y-164721383D01*
X139573000Y-164772314D01*
X139573000Y-165100000D01*
X139575440Y-165124776D01*
X139582667Y-165148601D01*
X139594403Y-165170557D01*
X139610197Y-165189803D01*
X139629443Y-165205597D01*
X139651399Y-165217333D01*
X139675224Y-165224560D01*
X139700000Y-165227000D01*
X140027686Y-165227000D01*
X140078617Y-165242450D01*
X140208000Y-165255193D01*
X140240419Y-165252000D01*
X145644001Y-165252000D01*
X145644000Y-171044000D01*
X144316761Y-171044000D01*
X144395252Y-171016157D01*
X144645355Y-170867178D01*
X144861588Y-170672269D01*
X145035641Y-170438920D01*
X145160825Y-170176099D01*
X145205476Y-170028890D01*
X145084155Y-169799000D01*
X143891000Y-169799000D01*
X143891000Y-169819000D01*
X143637000Y-169819000D01*
X143637000Y-169799000D01*
X141351000Y-169799000D01*
X141351000Y-169819000D01*
X141097000Y-169819000D01*
X141097000Y-169799000D01*
X139903845Y-169799000D01*
X139782524Y-170028890D01*
X139827175Y-170176099D01*
X139952359Y-170438920D01*
X140126412Y-170672269D01*
X140342645Y-170867178D01*
X140592748Y-171016157D01*
X140671239Y-171044000D01*
X116992000Y-171044000D01*
X116992000Y-166990665D01*
X129629000Y-166990665D01*
X129629000Y-167273335D01*
X129684147Y-167550574D01*
X129792320Y-167811727D01*
X129949363Y-168046759D01*
X130149241Y-168246637D01*
X130384273Y-168403680D01*
X130645426Y-168511853D01*
X130922665Y-168567000D01*
X131205335Y-168567000D01*
X131482574Y-168511853D01*
X131743727Y-168403680D01*
X131978759Y-168246637D01*
X132178637Y-168046759D01*
X132335680Y-167811727D01*
X132443853Y-167550574D01*
X132499000Y-167273335D01*
X132499000Y-166990665D01*
X132443853Y-166713426D01*
X132335680Y-166452273D01*
X132221908Y-166282000D01*
X139735928Y-166282000D01*
X139735928Y-167982000D01*
X139748188Y-168106482D01*
X139784498Y-168226180D01*
X139843463Y-168336494D01*
X139922815Y-168433185D01*
X140019506Y-168512537D01*
X140129820Y-168571502D01*
X140210466Y-168595966D01*
X140126412Y-168671731D01*
X139952359Y-168905080D01*
X139827175Y-169167901D01*
X139782524Y-169315110D01*
X139903845Y-169545000D01*
X141097000Y-169545000D01*
X141097000Y-169525000D01*
X141351000Y-169525000D01*
X141351000Y-169545000D01*
X143637000Y-169545000D01*
X143637000Y-169525000D01*
X143891000Y-169525000D01*
X143891000Y-169545000D01*
X145084155Y-169545000D01*
X145205476Y-169315110D01*
X145160825Y-169167901D01*
X145035641Y-168905080D01*
X144861588Y-168671731D01*
X144645355Y-168476822D01*
X144528466Y-168407195D01*
X144710632Y-168285475D01*
X144917475Y-168078632D01*
X145079990Y-167835411D01*
X145191932Y-167565158D01*
X145249000Y-167278260D01*
X145249000Y-166985740D01*
X145191932Y-166698842D01*
X145079990Y-166428589D01*
X144917475Y-166185368D01*
X144710632Y-165978525D01*
X144467411Y-165816010D01*
X144197158Y-165704068D01*
X143910260Y-165647000D01*
X143617740Y-165647000D01*
X143330842Y-165704068D01*
X143060589Y-165816010D01*
X142817368Y-165978525D01*
X142685513Y-166110380D01*
X142663502Y-166037820D01*
X142604537Y-165927506D01*
X142525185Y-165830815D01*
X142428494Y-165751463D01*
X142318180Y-165692498D01*
X142198482Y-165656188D01*
X142074000Y-165643928D01*
X140374000Y-165643928D01*
X140249518Y-165656188D01*
X140129820Y-165692498D01*
X140019506Y-165751463D01*
X139922815Y-165830815D01*
X139843463Y-165927506D01*
X139784498Y-166037820D01*
X139748188Y-166157518D01*
X139735928Y-166282000D01*
X132221908Y-166282000D01*
X132178637Y-166217241D01*
X131978759Y-166017363D01*
X131743727Y-165860320D01*
X131482574Y-165752147D01*
X131205335Y-165697000D01*
X130922665Y-165697000D01*
X130645426Y-165752147D01*
X130384273Y-165860320D01*
X130149241Y-166017363D01*
X129949363Y-166217241D01*
X129792320Y-166452273D01*
X129684147Y-166713426D01*
X129629000Y-166990665D01*
X116992000Y-166990665D01*
X116992000Y-155164000D01*
X119981928Y-155164000D01*
X119981928Y-157764000D01*
X119994188Y-157888482D01*
X120030498Y-158008180D01*
X120089463Y-158118494D01*
X120168815Y-158215185D01*
X120265506Y-158294537D01*
X120375820Y-158353502D01*
X120495518Y-158389812D01*
X120620000Y-158402072D01*
X122463127Y-158402072D01*
X121408998Y-159456201D01*
X121380000Y-159479999D01*
X121356202Y-159508997D01*
X121356201Y-159508998D01*
X121285026Y-159595724D01*
X121214454Y-159727754D01*
X121170998Y-159871015D01*
X121156324Y-160020000D01*
X121160001Y-160057332D01*
X121160001Y-160684373D01*
X121003434Y-160749225D01*
X120686509Y-160960987D01*
X120416987Y-161230509D01*
X120205225Y-161547434D01*
X120059361Y-161899581D01*
X119985000Y-162273419D01*
X119985000Y-162654581D01*
X120059361Y-163028419D01*
X120205225Y-163380566D01*
X120416987Y-163697491D01*
X120686509Y-163967013D01*
X121003434Y-164178775D01*
X121355581Y-164324639D01*
X121729419Y-164399000D01*
X122110581Y-164399000D01*
X122484419Y-164324639D01*
X122836566Y-164178775D01*
X123153491Y-163967013D01*
X123423013Y-163697491D01*
X123634775Y-163380566D01*
X123780639Y-163028419D01*
X123855000Y-162654581D01*
X123855000Y-162273419D01*
X123780639Y-161899581D01*
X123634775Y-161547434D01*
X123423013Y-161230509D01*
X123153491Y-160960987D01*
X122836566Y-160749225D01*
X122680000Y-160684373D01*
X122680000Y-160334801D01*
X123741382Y-159273419D01*
X124685000Y-159273419D01*
X124685000Y-159654581D01*
X124759361Y-160028419D01*
X124905225Y-160380566D01*
X125116987Y-160697491D01*
X125386509Y-160967013D01*
X125703434Y-161178775D01*
X126055581Y-161324639D01*
X126429419Y-161399000D01*
X126810581Y-161399000D01*
X127184419Y-161324639D01*
X127536566Y-161178775D01*
X127853491Y-160967013D01*
X128123013Y-160697491D01*
X128334775Y-160380566D01*
X128480639Y-160028419D01*
X128555000Y-159654581D01*
X128555000Y-159370665D01*
X129629000Y-159370665D01*
X129629000Y-159653335D01*
X129684147Y-159930574D01*
X129792320Y-160191727D01*
X129949363Y-160426759D01*
X130149241Y-160626637D01*
X130384273Y-160783680D01*
X130645426Y-160891853D01*
X130922665Y-160947000D01*
X131205335Y-160947000D01*
X131482574Y-160891853D01*
X131743727Y-160783680D01*
X131978759Y-160626637D01*
X132178637Y-160426759D01*
X132335680Y-160191727D01*
X132443853Y-159930574D01*
X132499000Y-159653335D01*
X132499000Y-159370665D01*
X132443853Y-159093426D01*
X132335680Y-158832273D01*
X132178637Y-158597241D01*
X131978759Y-158397363D01*
X131743727Y-158240320D01*
X131482574Y-158132147D01*
X131205335Y-158077000D01*
X130922665Y-158077000D01*
X130645426Y-158132147D01*
X130384273Y-158240320D01*
X130149241Y-158397363D01*
X129949363Y-158597241D01*
X129792320Y-158832273D01*
X129684147Y-159093426D01*
X129629000Y-159370665D01*
X128555000Y-159370665D01*
X128555000Y-159273419D01*
X128480639Y-158899581D01*
X128334775Y-158547434D01*
X128123013Y-158230509D01*
X127853491Y-157960987D01*
X127536566Y-157749225D01*
X127184419Y-157603361D01*
X126810581Y-157529000D01*
X126429419Y-157529000D01*
X126055581Y-157603361D01*
X125703434Y-157749225D01*
X125386509Y-157960987D01*
X125116987Y-158230509D01*
X124905225Y-158547434D01*
X124759361Y-158899581D01*
X124685000Y-159273419D01*
X123741382Y-159273419D01*
X128733985Y-154280816D01*
X130037000Y-154280816D01*
X130037000Y-154583184D01*
X130095989Y-154879743D01*
X130211701Y-155159095D01*
X130379688Y-155410505D01*
X130593495Y-155624312D01*
X130844905Y-155792299D01*
X131124257Y-155908011D01*
X131420816Y-155967000D01*
X131723184Y-155967000D01*
X132019743Y-155908011D01*
X132299095Y-155792299D01*
X132550505Y-155624312D01*
X132616944Y-155557873D01*
X132622498Y-155576180D01*
X132681463Y-155686494D01*
X132760815Y-155783185D01*
X132857506Y-155862537D01*
X132967820Y-155921502D01*
X133087518Y-155957812D01*
X133212000Y-155970072D01*
X133826250Y-155967000D01*
X133985000Y-155808250D01*
X133985000Y-154559000D01*
X134239000Y-154559000D01*
X134239000Y-155808250D01*
X134397750Y-155967000D01*
X135012000Y-155970072D01*
X135136482Y-155957812D01*
X135256180Y-155921502D01*
X135366494Y-155862537D01*
X135463185Y-155783185D01*
X135542537Y-155686494D01*
X135601502Y-155576180D01*
X135637812Y-155456482D01*
X135650072Y-155332000D01*
X135647000Y-154717750D01*
X135488250Y-154559000D01*
X134239000Y-154559000D01*
X133985000Y-154559000D01*
X133965000Y-154559000D01*
X133965000Y-154305000D01*
X133985000Y-154305000D01*
X133985000Y-153055750D01*
X134239000Y-153055750D01*
X134239000Y-154305000D01*
X135488250Y-154305000D01*
X135647000Y-154146250D01*
X135650072Y-153532000D01*
X135637812Y-153407518D01*
X135601502Y-153287820D01*
X135542537Y-153177506D01*
X135463185Y-153080815D01*
X135366494Y-153001463D01*
X135256180Y-152942498D01*
X135136482Y-152906188D01*
X135012000Y-152893928D01*
X134397750Y-152897000D01*
X134239000Y-153055750D01*
X133985000Y-153055750D01*
X133826250Y-152897000D01*
X133212000Y-152893928D01*
X133087518Y-152906188D01*
X132967820Y-152942498D01*
X132857506Y-153001463D01*
X132760815Y-153080815D01*
X132681463Y-153177506D01*
X132622498Y-153287820D01*
X132616944Y-153306127D01*
X132550505Y-153239688D01*
X132299095Y-153071701D01*
X132019743Y-152955989D01*
X131723184Y-152897000D01*
X131420816Y-152897000D01*
X131124257Y-152955989D01*
X130844905Y-153071701D01*
X130593495Y-153239688D01*
X130379688Y-153453495D01*
X130211701Y-153704905D01*
X130095989Y-153984257D01*
X130037000Y-154280816D01*
X128733985Y-154280816D01*
X129035004Y-153979798D01*
X129064001Y-153956001D01*
X129158974Y-153840276D01*
X129229546Y-153708247D01*
X129273003Y-153564986D01*
X129284000Y-153453333D01*
X129284000Y-153453324D01*
X129287676Y-153416001D01*
X129284000Y-153378678D01*
X129284000Y-150074072D01*
X129624000Y-150074072D01*
X129748482Y-150061812D01*
X129868180Y-150025502D01*
X129978494Y-149966537D01*
X130075185Y-149887185D01*
X130154537Y-149790494D01*
X130213502Y-149680180D01*
X130249812Y-149560482D01*
X130262072Y-149436000D01*
X130262072Y-147236000D01*
X130249812Y-147111518D01*
X130213502Y-146991820D01*
X130154537Y-146881506D01*
X130075185Y-146784815D01*
X129978494Y-146705463D01*
X129868180Y-146646498D01*
X129748482Y-146610188D01*
X129624000Y-146597928D01*
X129284000Y-146597928D01*
X129284000Y-146367500D01*
X132473928Y-146367500D01*
X132473928Y-148272500D01*
X132486188Y-148396982D01*
X132522498Y-148516680D01*
X132581463Y-148626994D01*
X132660815Y-148723685D01*
X132757506Y-148803037D01*
X132867820Y-148862002D01*
X132987518Y-148898312D01*
X133112000Y-148910572D01*
X135112000Y-148910572D01*
X135236482Y-148898312D01*
X135356180Y-148862002D01*
X135466494Y-148803037D01*
X135563185Y-148723685D01*
X135642537Y-148626994D01*
X135701502Y-148516680D01*
X135737812Y-148396982D01*
X135750072Y-148272500D01*
X135750072Y-146367500D01*
X135737812Y-146243018D01*
X135701502Y-146123320D01*
X135642537Y-146013006D01*
X135563185Y-145916315D01*
X135466494Y-145836963D01*
X135374781Y-145787941D01*
X135487969Y-145646923D01*
X135631571Y-145371094D01*
X135702563Y-145152980D01*
X135582594Y-144907000D01*
X134239000Y-144907000D01*
X134239000Y-144927000D01*
X133985000Y-144927000D01*
X133985000Y-144907000D01*
X132641406Y-144907000D01*
X132521437Y-145152980D01*
X132592429Y-145371094D01*
X132736031Y-145646923D01*
X132849219Y-145787941D01*
X132757506Y-145836963D01*
X132660815Y-145916315D01*
X132581463Y-146013006D01*
X132522498Y-146123320D01*
X132486188Y-146243018D01*
X132473928Y-146367500D01*
X129284000Y-146367500D01*
X129284000Y-145327148D01*
X129345831Y-145301537D01*
X129629998Y-145111663D01*
X129871663Y-144869998D01*
X130061537Y-144585831D01*
X130192325Y-144270081D01*
X130259000Y-143934883D01*
X130259000Y-143593117D01*
X130192325Y-143257919D01*
X130061537Y-142942169D01*
X129871663Y-142658002D01*
X129629998Y-142416337D01*
X129366091Y-142240000D01*
X132469319Y-142240000D01*
X132499970Y-142551204D01*
X132590745Y-142850449D01*
X132738155Y-143126235D01*
X132936537Y-143367963D01*
X133115899Y-143515163D01*
X132930685Y-143670563D01*
X132736031Y-143913077D01*
X132592429Y-144188906D01*
X132521437Y-144407020D01*
X132641406Y-144653000D01*
X133985000Y-144653000D01*
X133985000Y-144633000D01*
X134239000Y-144633000D01*
X134239000Y-144653000D01*
X135582594Y-144653000D01*
X135702563Y-144407020D01*
X135631571Y-144188906D01*
X135487969Y-143913077D01*
X135293315Y-143670563D01*
X135108101Y-143515163D01*
X135287463Y-143367963D01*
X135485845Y-143126235D01*
X135633255Y-142850449D01*
X135724030Y-142551204D01*
X135754681Y-142240000D01*
X135724030Y-141928796D01*
X135633255Y-141629551D01*
X135485845Y-141353765D01*
X135287463Y-141112037D01*
X135045735Y-140913655D01*
X134769949Y-140766245D01*
X134470704Y-140675470D01*
X134237486Y-140652500D01*
X133986514Y-140652500D01*
X133753296Y-140675470D01*
X133454051Y-140766245D01*
X133178265Y-140913655D01*
X132936537Y-141112037D01*
X132738155Y-141353765D01*
X132590745Y-141629551D01*
X132499970Y-141928796D01*
X132469319Y-142240000D01*
X129366091Y-142240000D01*
X129345831Y-142226463D01*
X129030081Y-142095675D01*
X128694883Y-142029000D01*
X128353117Y-142029000D01*
X128017919Y-142095675D01*
X127702169Y-142226463D01*
X127418002Y-142416337D01*
X127176337Y-142658002D01*
X126986463Y-142942169D01*
X126855675Y-143257919D01*
X126789000Y-143593117D01*
X126789000Y-143934883D01*
X126855675Y-144270081D01*
X126986463Y-144585831D01*
X127176337Y-144869998D01*
X127418002Y-145111663D01*
X127702169Y-145301537D01*
X127764001Y-145327149D01*
X127764000Y-146597928D01*
X127424000Y-146597928D01*
X127299518Y-146610188D01*
X127179820Y-146646498D01*
X127069506Y-146705463D01*
X126972815Y-146784815D01*
X126893463Y-146881506D01*
X126834498Y-146991820D01*
X126798188Y-147111518D01*
X126785928Y-147236000D01*
X126785928Y-149436000D01*
X126798188Y-149560482D01*
X126834498Y-149680180D01*
X126893463Y-149790494D01*
X126972815Y-149887185D01*
X127069506Y-149966537D01*
X127179820Y-150025502D01*
X127299518Y-150061812D01*
X127424000Y-150074072D01*
X127764001Y-150074072D01*
X127764000Y-153101198D01*
X123858072Y-157007127D01*
X123858072Y-155164000D01*
X123845812Y-155039518D01*
X123809502Y-154919820D01*
X123750537Y-154809506D01*
X123671185Y-154712815D01*
X123574494Y-154633463D01*
X123464180Y-154574498D01*
X123344482Y-154538188D01*
X123220000Y-154525928D01*
X120620000Y-154525928D01*
X120495518Y-154538188D01*
X120375820Y-154574498D01*
X120265506Y-154633463D01*
X120168815Y-154712815D01*
X120089463Y-154809506D01*
X120030498Y-154919820D01*
X119994188Y-155039518D01*
X119981928Y-155164000D01*
X116992000Y-155164000D01*
X116992000Y-149384302D01*
X117096178Y-149520427D01*
X117351609Y-149745008D01*
X117645946Y-149915442D01*
X117967877Y-150025179D01*
X118237000Y-149907600D01*
X118237000Y-148463000D01*
X118491000Y-148463000D01*
X118491000Y-149907600D01*
X118760123Y-150025179D01*
X119082054Y-149915442D01*
X119376391Y-149745008D01*
X119631822Y-149520427D01*
X119838531Y-149250329D01*
X119988575Y-148945094D01*
X120053175Y-148732122D01*
X119935125Y-148463000D01*
X118491000Y-148463000D01*
X118237000Y-148463000D01*
X118217000Y-148463000D01*
X118217000Y-148209000D01*
X118237000Y-148209000D01*
X118237000Y-146764400D01*
X118491000Y-146764400D01*
X118491000Y-148209000D01*
X119935125Y-148209000D01*
X120053175Y-147939878D01*
X119988575Y-147726906D01*
X119838531Y-147421671D01*
X119631822Y-147151573D01*
X119376391Y-146926992D01*
X119082054Y-146756558D01*
X118760123Y-146646821D01*
X118491000Y-146764400D01*
X118237000Y-146764400D01*
X117967877Y-146646821D01*
X117645946Y-146756558D01*
X117351609Y-146926992D01*
X117096178Y-147151573D01*
X116992000Y-147287698D01*
X116992000Y-145438632D01*
X117019820Y-145453502D01*
X117139518Y-145489812D01*
X117264000Y-145502072D01*
X119464000Y-145502072D01*
X119588482Y-145489812D01*
X119708180Y-145453502D01*
X119818494Y-145394537D01*
X119915185Y-145315185D01*
X119994537Y-145218494D01*
X120053502Y-145108180D01*
X120089812Y-144988482D01*
X120102072Y-144864000D01*
X120102072Y-142664000D01*
X120089812Y-142539518D01*
X120053502Y-142419820D01*
X119994537Y-142309506D01*
X119915185Y-142212815D01*
X119818494Y-142133463D01*
X119708180Y-142074498D01*
X119588482Y-142038188D01*
X119464000Y-142025928D01*
X117264000Y-142025928D01*
X117139518Y-142038188D01*
X117019820Y-142074498D01*
X116992000Y-142089368D01*
X116992000Y-139732302D01*
X117096178Y-139868427D01*
X117351609Y-140093008D01*
X117645946Y-140263442D01*
X117967877Y-140373179D01*
X118237000Y-140255600D01*
X118237000Y-138811000D01*
X118491000Y-138811000D01*
X118491000Y-140255600D01*
X118760123Y-140373179D01*
X119082054Y-140263442D01*
X119376391Y-140093008D01*
X119631822Y-139868427D01*
X119838531Y-139598329D01*
X119988575Y-139293094D01*
X120053175Y-139080122D01*
X119935125Y-138811000D01*
X118491000Y-138811000D01*
X118237000Y-138811000D01*
X118217000Y-138811000D01*
X118217000Y-138557000D01*
X118237000Y-138557000D01*
X118237000Y-137112400D01*
X118491000Y-137112400D01*
X118491000Y-138557000D01*
X119935125Y-138557000D01*
X120053175Y-138287878D01*
X119988575Y-138074906D01*
X119838531Y-137769671D01*
X119696435Y-137584000D01*
X126785928Y-137584000D01*
X126785928Y-139784000D01*
X126798188Y-139908482D01*
X126834498Y-140028180D01*
X126893463Y-140138494D01*
X126972815Y-140235185D01*
X127069506Y-140314537D01*
X127179820Y-140373502D01*
X127299518Y-140409812D01*
X127424000Y-140422072D01*
X129624000Y-140422072D01*
X129748482Y-140409812D01*
X129868180Y-140373502D01*
X129978494Y-140314537D01*
X130075185Y-140235185D01*
X130154537Y-140138494D01*
X130213502Y-140028180D01*
X130249812Y-139908482D01*
X130262072Y-139784000D01*
X130262072Y-137584000D01*
X130249812Y-137459518D01*
X130213502Y-137339820D01*
X130154537Y-137229506D01*
X130075185Y-137132815D01*
X129978494Y-137053463D01*
X129868180Y-136994498D01*
X129748482Y-136958188D01*
X129624000Y-136945928D01*
X127424000Y-136945928D01*
X127299518Y-136958188D01*
X127179820Y-136994498D01*
X127069506Y-137053463D01*
X126972815Y-137132815D01*
X126893463Y-137229506D01*
X126834498Y-137339820D01*
X126798188Y-137459518D01*
X126785928Y-137584000D01*
X119696435Y-137584000D01*
X119631822Y-137499573D01*
X119376391Y-137274992D01*
X119082054Y-137104558D01*
X118760123Y-136994821D01*
X118491000Y-137112400D01*
X118237000Y-137112400D01*
X117967877Y-136994821D01*
X117645946Y-137104558D01*
X117351609Y-137274992D01*
X117096178Y-137499573D01*
X116992000Y-137635698D01*
X116992000Y-135484816D01*
X133593000Y-135484816D01*
X133593000Y-135787184D01*
X133651989Y-136083743D01*
X133767701Y-136363095D01*
X133935688Y-136614505D01*
X134149495Y-136828312D01*
X134400905Y-136996299D01*
X134680257Y-137112011D01*
X134976816Y-137171000D01*
X135279184Y-137171000D01*
X135575743Y-137112011D01*
X135855095Y-136996299D01*
X136106505Y-136828312D01*
X136172944Y-136761873D01*
X136178498Y-136780180D01*
X136237463Y-136890494D01*
X136316815Y-136987185D01*
X136413506Y-137066537D01*
X136523820Y-137125502D01*
X136643518Y-137161812D01*
X136768000Y-137174072D01*
X137382250Y-137171000D01*
X137541000Y-137012250D01*
X137541000Y-135763000D01*
X137795000Y-135763000D01*
X137795000Y-137012250D01*
X137953750Y-137171000D01*
X138568000Y-137174072D01*
X138692482Y-137161812D01*
X138812180Y-137125502D01*
X138922494Y-137066537D01*
X139019185Y-136987185D01*
X139098537Y-136890494D01*
X139157502Y-136780180D01*
X139193812Y-136660482D01*
X139206072Y-136536000D01*
X139203000Y-135921750D01*
X139044250Y-135763000D01*
X137795000Y-135763000D01*
X137541000Y-135763000D01*
X137521000Y-135763000D01*
X137521000Y-135509000D01*
X137541000Y-135509000D01*
X137541000Y-134259750D01*
X137795000Y-134259750D01*
X137795000Y-135509000D01*
X139044250Y-135509000D01*
X139203000Y-135350250D01*
X139206072Y-134736000D01*
X139193812Y-134611518D01*
X139157502Y-134491820D01*
X139098537Y-134381506D01*
X139019185Y-134284815D01*
X138922494Y-134205463D01*
X138812180Y-134146498D01*
X138692482Y-134110188D01*
X138568000Y-134097928D01*
X137953750Y-134101000D01*
X137795000Y-134259750D01*
X137541000Y-134259750D01*
X137382250Y-134101000D01*
X136768000Y-134097928D01*
X136643518Y-134110188D01*
X136523820Y-134146498D01*
X136413506Y-134205463D01*
X136316815Y-134284815D01*
X136237463Y-134381506D01*
X136178498Y-134491820D01*
X136172944Y-134510127D01*
X136106505Y-134443688D01*
X135855095Y-134275701D01*
X135575743Y-134159989D01*
X135279184Y-134101000D01*
X134976816Y-134101000D01*
X134680257Y-134159989D01*
X134400905Y-134275701D01*
X134149495Y-134443688D01*
X133935688Y-134657495D01*
X133767701Y-134908905D01*
X133651989Y-135188257D01*
X133593000Y-135484816D01*
X116992000Y-135484816D01*
X116992000Y-135278632D01*
X117019820Y-135293502D01*
X117139518Y-135329812D01*
X117264000Y-135342072D01*
X119464000Y-135342072D01*
X119588482Y-135329812D01*
X119708180Y-135293502D01*
X119818494Y-135234537D01*
X119915185Y-135155185D01*
X119994537Y-135058494D01*
X120053502Y-134948180D01*
X120089812Y-134828482D01*
X120102072Y-134704000D01*
X120102072Y-133433117D01*
X126789000Y-133433117D01*
X126789000Y-133774883D01*
X126855675Y-134110081D01*
X126986463Y-134425831D01*
X127176337Y-134709998D01*
X127418002Y-134951663D01*
X127702169Y-135141537D01*
X128017919Y-135272325D01*
X128353117Y-135339000D01*
X128694883Y-135339000D01*
X129030081Y-135272325D01*
X129345831Y-135141537D01*
X129629998Y-134951663D01*
X129871663Y-134709998D01*
X130061537Y-134425831D01*
X130192325Y-134110081D01*
X130259000Y-133774883D01*
X130259000Y-133433117D01*
X130192325Y-133097919D01*
X130061537Y-132782169D01*
X129871663Y-132498002D01*
X129629998Y-132256337D01*
X129345831Y-132066463D01*
X129030081Y-131935675D01*
X128694883Y-131869000D01*
X128353117Y-131869000D01*
X128017919Y-131935675D01*
X127702169Y-132066463D01*
X127418002Y-132256337D01*
X127176337Y-132498002D01*
X126986463Y-132782169D01*
X126855675Y-133097919D01*
X126789000Y-133433117D01*
X120102072Y-133433117D01*
X120102072Y-132504000D01*
X120089812Y-132379518D01*
X120053502Y-132259820D01*
X119994537Y-132149506D01*
X119915185Y-132052815D01*
X119818494Y-131973463D01*
X119708180Y-131914498D01*
X119588482Y-131878188D01*
X119464000Y-131865928D01*
X117264000Y-131865928D01*
X117139518Y-131878188D01*
X117019820Y-131914498D01*
X116992000Y-131929368D01*
X116992000Y-129398665D01*
X127089000Y-129398665D01*
X127089000Y-129681335D01*
X127144147Y-129958574D01*
X127252320Y-130219727D01*
X127409363Y-130454759D01*
X127609241Y-130654637D01*
X127844273Y-130811680D01*
X128105426Y-130919853D01*
X128382665Y-130975000D01*
X128665335Y-130975000D01*
X128942574Y-130919853D01*
X129203727Y-130811680D01*
X129438759Y-130654637D01*
X129638637Y-130454759D01*
X129795680Y-130219727D01*
X129903853Y-129958574D01*
X129959000Y-129681335D01*
X129959000Y-129398665D01*
X134709000Y-129398665D01*
X134709000Y-129681335D01*
X134764147Y-129958574D01*
X134872320Y-130219727D01*
X135029363Y-130454759D01*
X135229241Y-130654637D01*
X135464273Y-130811680D01*
X135725426Y-130919853D01*
X136002665Y-130975000D01*
X136285335Y-130975000D01*
X136562574Y-130919853D01*
X136823727Y-130811680D01*
X137058759Y-130654637D01*
X137258637Y-130454759D01*
X137415680Y-130219727D01*
X137523853Y-129958574D01*
X137579000Y-129681335D01*
X137579000Y-129398665D01*
X137523853Y-129121426D01*
X137415680Y-128860273D01*
X137258637Y-128625241D01*
X137058759Y-128425363D01*
X136823727Y-128268320D01*
X136562574Y-128160147D01*
X136285335Y-128105000D01*
X136002665Y-128105000D01*
X135725426Y-128160147D01*
X135464273Y-128268320D01*
X135229241Y-128425363D01*
X135029363Y-128625241D01*
X134872320Y-128860273D01*
X134764147Y-129121426D01*
X134709000Y-129398665D01*
X129959000Y-129398665D01*
X129903853Y-129121426D01*
X129795680Y-128860273D01*
X129638637Y-128625241D01*
X129438759Y-128425363D01*
X129203727Y-128268320D01*
X128942574Y-128160147D01*
X128665335Y-128105000D01*
X128382665Y-128105000D01*
X128105426Y-128160147D01*
X127844273Y-128268320D01*
X127609241Y-128425363D01*
X127409363Y-128625241D01*
X127252320Y-128860273D01*
X127144147Y-129121426D01*
X127089000Y-129398665D01*
X116992000Y-129398665D01*
X116992000Y-123968000D01*
X118249928Y-123968000D01*
X118249928Y-125968000D01*
X118262188Y-126092482D01*
X118298498Y-126212180D01*
X118357463Y-126322494D01*
X118436815Y-126419185D01*
X118533506Y-126498537D01*
X118643820Y-126557502D01*
X118763518Y-126593812D01*
X118888000Y-126606072D01*
X120888000Y-126606072D01*
X121012482Y-126593812D01*
X121132180Y-126557502D01*
X121242494Y-126498537D01*
X121339185Y-126419185D01*
X121418537Y-126322494D01*
X121477502Y-126212180D01*
X121510496Y-126103413D01*
X123932192Y-126103413D01*
X124027956Y-126367814D01*
X124317571Y-126508704D01*
X124629108Y-126590384D01*
X124950595Y-126609718D01*
X125269675Y-126565961D01*
X125574088Y-126460795D01*
X125748044Y-126367814D01*
X125843808Y-126103413D01*
X124888000Y-125147605D01*
X123932192Y-126103413D01*
X121510496Y-126103413D01*
X121513812Y-126092482D01*
X121526072Y-125968000D01*
X121526072Y-125030595D01*
X123246282Y-125030595D01*
X123290039Y-125349675D01*
X123395205Y-125654088D01*
X123488186Y-125828044D01*
X123752587Y-125923808D01*
X124708395Y-124968000D01*
X125067605Y-124968000D01*
X126023413Y-125923808D01*
X126287814Y-125828044D01*
X126428704Y-125538429D01*
X126510384Y-125226892D01*
X126529718Y-124905405D01*
X126485961Y-124586325D01*
X126380795Y-124281912D01*
X126287814Y-124107956D01*
X126023413Y-124012192D01*
X125067605Y-124968000D01*
X124708395Y-124968000D01*
X123752587Y-124012192D01*
X123488186Y-124107956D01*
X123347296Y-124397571D01*
X123265616Y-124709108D01*
X123246282Y-125030595D01*
X121526072Y-125030595D01*
X121526072Y-123968000D01*
X121513812Y-123843518D01*
X121510497Y-123832587D01*
X123932192Y-123832587D01*
X124888000Y-124788395D01*
X125843808Y-123832587D01*
X125748044Y-123568186D01*
X125458429Y-123427296D01*
X125146892Y-123345616D01*
X124825405Y-123326282D01*
X124506325Y-123370039D01*
X124201912Y-123475205D01*
X124027956Y-123568186D01*
X123932192Y-123832587D01*
X121510497Y-123832587D01*
X121477502Y-123723820D01*
X121418537Y-123613506D01*
X121339185Y-123516815D01*
X121242494Y-123437463D01*
X121132180Y-123378498D01*
X121012482Y-123342188D01*
X120888000Y-123329928D01*
X118888000Y-123329928D01*
X118763518Y-123342188D01*
X118643820Y-123378498D01*
X118533506Y-123437463D01*
X118436815Y-123516815D01*
X118357463Y-123613506D01*
X118298498Y-123723820D01*
X118262188Y-123843518D01*
X118249928Y-123968000D01*
X116992000Y-123968000D01*
X116992000Y-122136000D01*
X129117928Y-122136000D01*
X129117928Y-123736000D01*
X129130188Y-123860482D01*
X129166498Y-123980180D01*
X129225463Y-124090494D01*
X129304815Y-124187185D01*
X129401506Y-124266537D01*
X129511820Y-124325502D01*
X129631518Y-124361812D01*
X129756000Y-124374072D01*
X131356000Y-124374072D01*
X131480482Y-124361812D01*
X131600180Y-124325502D01*
X131710494Y-124266537D01*
X131807185Y-124187185D01*
X131886537Y-124090494D01*
X131945502Y-123980180D01*
X131961117Y-123928702D01*
X132242903Y-123928702D01*
X132314486Y-124172671D01*
X132569996Y-124293571D01*
X132844184Y-124362300D01*
X133126512Y-124376217D01*
X133406130Y-124334787D01*
X133478545Y-124308890D01*
X140290524Y-124308890D01*
X140335175Y-124456099D01*
X140460359Y-124718920D01*
X140634412Y-124952269D01*
X140850645Y-125147178D01*
X141100748Y-125296157D01*
X141375109Y-125393481D01*
X141605000Y-125272814D01*
X141605000Y-124079000D01*
X141859000Y-124079000D01*
X141859000Y-125272814D01*
X142088891Y-125393481D01*
X142363252Y-125296157D01*
X142613355Y-125147178D01*
X142829588Y-124952269D01*
X143002000Y-124721120D01*
X143174412Y-124952269D01*
X143390645Y-125147178D01*
X143640748Y-125296157D01*
X143915109Y-125393481D01*
X144145000Y-125272814D01*
X144145000Y-124079000D01*
X141859000Y-124079000D01*
X141605000Y-124079000D01*
X140411845Y-124079000D01*
X140290524Y-124308890D01*
X133478545Y-124308890D01*
X133672292Y-124239603D01*
X133797514Y-124172671D01*
X133869097Y-123928702D01*
X133056000Y-123115605D01*
X132242903Y-123928702D01*
X131961117Y-123928702D01*
X131981812Y-123860482D01*
X131994072Y-123736000D01*
X131994072Y-123728785D01*
X132063298Y-123749097D01*
X132876395Y-122936000D01*
X133235605Y-122936000D01*
X134048702Y-123749097D01*
X134292671Y-123677514D01*
X134413571Y-123422004D01*
X134482300Y-123147816D01*
X134496217Y-122865488D01*
X134454787Y-122585870D01*
X134359603Y-122319708D01*
X134292671Y-122194486D01*
X134048702Y-122122903D01*
X133235605Y-122936000D01*
X132876395Y-122936000D01*
X132063298Y-122122903D01*
X131994072Y-122143215D01*
X131994072Y-122136000D01*
X131981812Y-122011518D01*
X131961118Y-121943298D01*
X132242903Y-121943298D01*
X133056000Y-122756395D01*
X133869097Y-121943298D01*
X133797514Y-121699329D01*
X133542004Y-121578429D01*
X133267816Y-121509700D01*
X132985488Y-121495783D01*
X132705870Y-121537213D01*
X132439708Y-121632397D01*
X132314486Y-121699329D01*
X132242903Y-121943298D01*
X131961118Y-121943298D01*
X131945502Y-121891820D01*
X131886537Y-121781506D01*
X131807185Y-121684815D01*
X131710494Y-121605463D01*
X131600180Y-121546498D01*
X131480482Y-121510188D01*
X131356000Y-121497928D01*
X129756000Y-121497928D01*
X129631518Y-121510188D01*
X129511820Y-121546498D01*
X129401506Y-121605463D01*
X129304815Y-121684815D01*
X129225463Y-121781506D01*
X129166498Y-121891820D01*
X129130188Y-122011518D01*
X129117928Y-122136000D01*
X116992000Y-122136000D01*
X116992000Y-119532000D01*
X145644001Y-119532000D01*
X145644001Y-120843812D01*
M02*
